<svg xmlns="http://www.w3.org/2000/svg" xmlns:xlink="http://www.w3.org/1999/xlink" width="300" zoomAndPan="magnify" viewBox="0 0 224.87999 225" height="300" preserveAspectRatio="xMidYMid meet" version="1.0"><defs><g/></defs><g fill="#ffffff" fill-opacity="1"><g transform="translate(11.772613, 115.12859)"><g><path d="M 105.0625 -49.25 C 104.738281 -49.175781 104.441406 -49.1875 104.171875 -49.28125 C 103.910156 -49.375 103.664062 -49.492188 103.4375 -49.640625 C 103.332031 -49.679688 103.238281 -49.734375 103.15625 -49.796875 C 99.957031 -51.535156 96.566406 -52.835938 92.984375 -53.703125 C 83.640625 -55.929688 74.128906 -55 64.453125 -50.90625 C 60.910156 -49.414062 57.515625 -47.625 54.265625 -45.53125 C 51.023438 -43.4375 47.863281 -41.144531 44.78125 -38.65625 C 39.8125 -34.632812 35.234375 -30.222656 31.046875 -25.421875 C 26.859375 -20.628906 23.003906 -15.519531 19.484375 -10.09375 C 18.203125 -8.15625 16.972656 -6.195312 15.796875 -4.21875 C 15.765625 -4.15625 15.734375 -4.097656 15.703125 -4.046875 C 14.796875 -2.640625 14.050781 -1.144531 13.46875 0.4375 C 13.195312 1.175781 12.851562 1.878906 12.4375 2.546875 C 11.9375 3.421875 11.25 3.75 10.375 3.53125 C 9.875 3.425781 9.664062 3.109375 9.75 2.578125 C 9.800781 2.191406 9.921875 1.820312 10.109375 1.46875 C 11.046875 -0.382812 11.875 -2.257812 12.59375 -4.15625 C 13.320312 -6.0625 14 -7.984375 14.625 -9.921875 C 14.789062 -10.421875 14.957031 -10.90625 15.125 -11.375 C 18.90625 -22.4375 22.410156 -33.578125 25.640625 -44.796875 C 25.703125 -45.035156 25.742188 -45.28125 25.765625 -45.53125 C 25.765625 -45.644531 25.773438 -45.769531 25.796875 -45.90625 C 25.503906 -45.882812 25.273438 -45.785156 25.109375 -45.609375 C 24.941406 -45.441406 24.800781 -45.253906 24.6875 -45.046875 C 24.664062 -44.953125 24.625 -44.867188 24.5625 -44.796875 C 24.375 -44.515625 24.195312 -44.21875 24.03125 -43.90625 C 22.195312 -41.050781 20.375 -38.171875 18.5625 -35.265625 C 15.71875 -30.628906 12.875 -25.988281 10.03125 -21.34375 C 5.914062 -14.644531 1.773438 -7.925781 -2.390625 -1.1875 C -3.304688 0.300781 -4.269531 1.75 -5.28125 3.15625 C -5.539062 3.519531 -5.773438 3.867188 -5.984375 4.203125 C -6.367188 4.835938 -6.910156 5.222656 -7.609375 5.359375 C -7.804688 5.390625 -7.984375 5.378906 -8.140625 5.328125 C -8.304688 5.285156 -8.414062 5.1875 -8.46875 5.03125 C -8.53125 4.914062 -8.53125 4.78125 -8.46875 4.625 C -8.414062 4.476562 -8.347656 4.347656 -8.265625 4.234375 C 1.671875 -12.023438 11.632812 -28.269531 21.625 -44.5 C 22.539062 -45.9375 23.507812 -47.347656 24.53125 -48.734375 C 24.75 -49.035156 24.953125 -49.335938 25.140625 -49.640625 C 25.722656 -50.484375 26.484375 -51.035156 27.421875 -51.296875 C 27.992188 -51.398438 28.445312 -51.3125 28.78125 -51.03125 C 29.113281 -50.757812 29.269531 -50.316406 29.25 -49.703125 C 29.082031 -47.910156 28.722656 -46.132812 28.171875 -44.375 C 25.441406 -34.925781 22.515625 -25.539062 19.390625 -16.21875 C 19.359375 -16.113281 19.320312 -16.015625 19.28125 -15.921875 C 19.164062 -15.648438 19.082031 -15.375 19.03125 -15.09375 C 18.988281 -14.820312 19.050781 -14.519531 19.21875 -14.1875 C 19.445312 -14.488281 19.671875 -14.78125 19.890625 -15.0625 C 20.359375 -15.632812 20.800781 -16.207031 21.21875 -16.78125 C 26.132812 -23.75 31.734375 -30.0625 38.015625 -35.71875 C 41.628906 -38.96875 45.378906 -41.96875 49.265625 -44.71875 C 53.148438 -47.46875 57.234375 -49.820312 61.515625 -51.78125 C 70.347656 -55.726562 79.21875 -57.195312 88.125 -56.1875 C 93.757812 -55.488281 99.003906 -53.859375 103.859375 -51.296875 C 103.972656 -51.242188 104.097656 -51.1875 104.234375 -51.125 C 104.484375 -51.007812 104.71875 -50.878906 104.9375 -50.734375 C 105.15625 -50.597656 105.335938 -50.394531 105.484375 -50.125 C 105.503906 -50.070312 105.515625 -50 105.515625 -49.90625 C 105.515625 -49.8125 105.503906 -49.722656 105.484375 -49.640625 C 105.429688 -49.546875 105.367188 -49.460938 105.296875 -49.390625 C 105.222656 -49.328125 105.144531 -49.28125 105.0625 -49.25 Z M 105.0625 -49.25 "/></g></g></g><g fill="#ffffff" fill-opacity="1"><g transform="translate(39.063365, 115.12859)"><g><path d="M 10.71875 -7.21875 C 10 -6.507812 9.15625 -5.898438 8.1875 -5.390625 C 7.21875 -4.878906 6.40625 -4.546875 5.75 -4.390625 C 5.101562 -4.234375 4.4375 -4.144531 3.75 -4.125 C 2.644531 -4.070312 1.628906 -4.222656 0.703125 -4.578125 C -0.816406 -5.191406 -1.347656 -6.363281 -0.890625 -8.09375 C -0.441406 -9.582031 0.445312 -10.75 1.78125 -11.59375 C 3.125 -12.4375 4.515625 -12.84375 5.953125 -12.8125 C 5.953125 -12.8125 5.960938 -12.8125 5.984375 -12.8125 C 6.347656 -12.84375 6.691406 -12.820312 7.015625 -12.75 C 7.566406 -12.539062 7.914062 -12.210938 8.0625 -11.765625 C 8.21875 -11.316406 8.117188 -10.816406 7.765625 -10.265625 C 6.960938 -9.046875 5.875 -8.363281 4.5 -8.21875 C 3.582031 -8.132812 2.695312 -8.179688 1.84375 -8.359375 C 1.675781 -8.378906 1.53125 -8.332031 1.40625 -8.21875 C 1.28125 -8.113281 1.207031 -7.976562 1.1875 -7.8125 C 0.9375 -6.726562 1.269531 -6.035156 2.1875 -5.734375 C 3.3125 -5.347656 4.484375 -5.347656 5.703125 -5.734375 C 7.109375 -6.179688 8.441406 -7.007812 9.703125 -8.21875 C 10.972656 -9.4375 11.707031 -10.003906 11.90625 -9.921875 C 12.101562 -9.847656 12.160156 -9.613281 12.078125 -9.21875 C 11.898438 -8.601562 11.445312 -7.9375 10.71875 -7.21875 Z M 2.703125 -10.265625 C 2.628906 -10.171875 2.578125 -10.070312 2.546875 -9.96875 C 2.515625 -9.863281 2.554688 -9.765625 2.671875 -9.671875 C 3.109375 -9.421875 3.582031 -9.328125 4.09375 -9.390625 C 4.613281 -9.460938 5.050781 -9.660156 5.40625 -9.984375 C 5.769531 -10.304688 5.925781 -10.695312 5.875 -11.15625 C 5.832031 -11.320312 5.742188 -11.425781 5.609375 -11.46875 C 5.472656 -11.507812 5.332031 -11.519531 5.1875 -11.5 C 4.257812 -11.332031 3.429688 -10.921875 2.703125 -10.265625 Z M 2.703125 -10.265625 "/></g></g></g><g fill="#ffffff" fill-opacity="1"><g transform="translate(50.017308, 115.12859)"><g><path d="M 9.109375 -9.546875 C 7.128906 -8.804688 5.695312 -8.203125 4.8125 -7.734375 C 4.175781 -7.421875 3.8125 -7.160156 3.71875 -6.953125 C 3.625 -6.742188 3.695312 -6.363281 3.9375 -5.8125 C 3.9375 -5.789062 3.953125 -5.753906 3.984375 -5.703125 C 4.265625 -5.035156 4.429688 -4.34375 4.484375 -3.625 C 4.566406 -2.1875 3.335938 -1.175781 0.796875 -0.59375 C -1.742188 -0.0195312 -3.441406 -0.00390625 -4.296875 -0.546875 C -5.160156 -1.085938 -5.425781 -1.769531 -5.09375 -2.59375 C -4.757812 -3.425781 -3.894531 -4.269531 -2.5 -5.125 C -1.113281 -5.976562 -0.1875 -6.59375 0.28125 -6.96875 C 0.757812 -7.34375 0.90625 -7.757812 0.71875 -8.21875 C 0.65625 -8.382812 0.585938 -8.550781 0.515625 -8.71875 C 0.347656 -9.101562 0.175781 -9.503906 0 -9.921875 C -0.320312 -10.671875 -0.460938 -11.410156 -0.421875 -12.140625 C -0.378906 -12.867188 -0.113281 -13.476562 0.375 -13.96875 C 0.875 -14.46875 1.644531 -14.738281 2.6875 -14.78125 C 3.28125 -14.800781 3.804688 -14.71875 4.265625 -14.53125 C 4.734375 -14.351562 5.109375 -14.019531 5.390625 -13.53125 C 5.609375 -13.195312 5.535156 -12.890625 5.171875 -12.609375 C 4.929688 -12.421875 4.675781 -12.394531 4.40625 -12.53125 C 4.226562 -12.601562 4.054688 -12.710938 3.890625 -12.859375 C 3.890625 -12.890625 3.890625 -12.90625 3.890625 -12.90625 C 3.816406 -12.957031 3.75 -13.007812 3.6875 -13.0625 C 3.613281 -13.175781 3.53125 -13.265625 3.4375 -13.328125 C 3.113281 -13.566406 2.785156 -13.640625 2.453125 -13.546875 C 2.117188 -13.453125 1.875 -13.195312 1.71875 -12.78125 C 1.601562 -12.457031 1.546875 -12.125 1.546875 -11.78125 C 1.566406 -11.363281 1.660156 -10.960938 1.828125 -10.578125 C 1.941406 -10.335938 2.039062 -10.117188 2.125 -9.921875 C 2.34375 -9.367188 2.519531 -8.988281 2.65625 -8.78125 C 2.789062 -8.570312 2.953125 -8.484375 3.140625 -8.515625 C 3.335938 -8.546875 5.117188 -9.179688 8.484375 -10.421875 C 9.210938 -10.660156 9.421875 -10.367188 9.109375 -9.546875 Z M 0.953125 -2.359375 C 1.835938 -2.648438 2.210938 -3.238281 2.078125 -4.125 C 2.078125 -4.1875 2.0625 -4.253906 2.03125 -4.328125 C 1.976562 -4.804688 1.875 -5.171875 1.71875 -5.421875 C 1.570312 -5.679688 1.238281 -5.675781 0.71875 -5.40625 C -0.59375 -4.664062 -1.800781 -3.796875 -2.90625 -2.796875 C -2.976562 -2.710938 -3.046875 -2.632812 -3.109375 -2.5625 C -3.109375 -2.5625 -3.117188 -2.539062 -3.140625 -2.5 C -3.210938 -2.40625 -3.222656 -2.289062 -3.171875 -2.15625 C -3.128906 -2.03125 -3.019531 -1.96875 -2.84375 -1.96875 C -1.550781 -1.769531 -0.285156 -1.898438 0.953125 -2.359375 Z M 0.953125 -2.359375 "/></g></g></g><g fill="#ffffff" fill-opacity="1"><g transform="translate(58.355109, 115.12859)"><g><path d="M 15.28125 -8.765625 C 15.050781 -8.566406 14.8125 -8.382812 14.5625 -8.21875 C 13.757812 -7.71875 13.035156 -7.320312 12.390625 -7.03125 C 11.742188 -6.75 10.984375 -6.457031 10.109375 -6.15625 C 8.804688 -5.769531 7.96875 -5.859375 7.59375 -6.421875 C 7.226562 -6.984375 7.171875 -7.765625 7.421875 -8.765625 C 7.765625 -10.203125 7.960938 -11.25 8.015625 -11.90625 C 8.078125 -12.570312 7.859375 -12.800781 7.359375 -12.59375 C 6.867188 -12.394531 5.972656 -11.710938 4.671875 -10.546875 C 2.847656 -8.972656 1.289062 -7.175781 0 -5.15625 C -0.164062 -4.882812 -0.363281 -4.660156 -0.59375 -4.484375 C -0.832031 -4.304688 -1.128906 -4.21875 -1.484375 -4.21875 C -1.828125 -4.21875 -2.070312 -4.304688 -2.21875 -4.484375 C -2.375 -4.660156 -2.378906 -4.894531 -2.234375 -5.1875 C -1.492188 -6.820312 -0.738281 -8.441406 0.03125 -10.046875 C 1.363281 -12.835938 2.675781 -15.613281 3.96875 -18.375 C 4.9375 -20.4375 5.890625 -22.503906 6.828125 -24.578125 C 7.410156 -25.796875 7.976562 -27.015625 8.53125 -28.234375 C 8.570312 -28.335938 8.628906 -28.441406 8.703125 -28.546875 C 8.742188 -28.691406 8.800781 -28.832031 8.875 -28.96875 C 8.945312 -29.101562 9.023438 -29.253906 9.109375 -29.421875 C 9.179688 -29.554688 9.320312 -29.664062 9.53125 -29.75 C 9.738281 -29.84375 9.945312 -29.898438 10.15625 -29.921875 C 10.363281 -29.953125 10.523438 -29.941406 10.640625 -29.890625 C 10.796875 -29.773438 10.882812 -29.65625 10.90625 -29.53125 C 10.925781 -29.40625 10.90625 -29.273438 10.84375 -29.140625 C 10.8125 -29.109375 10.796875 -29.0625 10.796875 -29 C 10.546875 -28.257812 10.285156 -27.546875 10.015625 -26.859375 C 8.421875 -23.015625 6.679688 -19.234375 4.796875 -15.515625 C 4.660156 -15.253906 4.5 -14.953125 4.3125 -14.609375 C 4.03125 -14.109375 3.769531 -13.613281 3.53125 -13.125 C 3.300781 -12.644531 3.222656 -12.320312 3.296875 -12.15625 C 3.378906 -12 3.753906 -12.125 4.421875 -12.53125 C 4.617188 -12.675781 4.800781 -12.816406 4.96875 -12.953125 C 5.5 -13.296875 6.019531 -13.628906 6.53125 -13.953125 C 6.976562 -14.253906 7.476562 -14.414062 8.03125 -14.4375 C 9.351562 -14.519531 10.097656 -13.921875 10.265625 -12.640625 C 10.328125 -12.128906 10.304688 -11.625 10.203125 -11.125 C 10.097656 -10.625 9.976562 -10.128906 9.84375 -9.640625 C 9.820312 -9.492188 9.796875 -9.351562 9.765625 -9.21875 C 9.535156 -8.363281 9.59375 -7.875 9.9375 -7.75 C 10.289062 -7.625 10.773438 -7.691406 11.390625 -7.953125 C 12.015625 -8.222656 12.644531 -8.546875 13.28125 -8.921875 C 13.726562 -9.148438 14.113281 -9.34375 14.4375 -9.5 C 14.769531 -9.664062 15.019531 -9.738281 15.1875 -9.71875 C 15.488281 -9.664062 15.625 -9.539062 15.59375 -9.34375 C 15.570312 -9.144531 15.46875 -8.953125 15.28125 -8.765625 Z M 15.28125 -8.765625 "/></g></g></g><g fill="#ffffff" fill-opacity="1"><g transform="translate(72.715696, 115.12859)"><g/></g></g><g fill="#ffffff" fill-opacity="1"><g transform="translate(86.94453, 115.12859)"><g><path d="M 134.328125 12.515625 C 134.378906 12.535156 134.414062 12.585938 134.4375 12.671875 C 134.457031 12.765625 134.46875 12.835938 134.46875 12.890625 C 134.425781 12.984375 134.378906 13.050781 134.328125 13.09375 C 134.273438 13.144531 134.21875 13.191406 134.15625 13.234375 C 133.90625 13.328125 133.660156 13.363281 133.421875 13.34375 C 133.171875 13.34375 132.9375 13.332031 132.71875 13.3125 C 132.601562 13.28125 132.503906 13.265625 132.421875 13.265625 C 131.253906 13.148438 130.097656 13.023438 128.953125 12.890625 C 126.234375 12.617188 123.539062 12.359375 120.875 12.109375 C 115.675781 11.640625 110.472656 11.210938 105.265625 10.828125 C 97.972656 10.316406 90.671875 9.925781 83.359375 9.65625 C 78.117188 9.46875 72.875 9.328125 67.625 9.234375 C 67.050781 9.210938 66.46875 9.203125 65.875 9.203125 C 65.269531 9.203125 64.679688 9.191406 64.109375 9.171875 C 60.546875 9.078125 56.984375 9.03125 53.421875 9.03125 L 53.34375 9.03125 C 51.25 9.03125 49.164062 9.078125 47.09375 9.171875 C 46.3125 9.191406 45.550781 9.203125 44.8125 9.203125 C 43.875 9.222656 42.921875 9.40625 41.953125 9.75 C 34.710938 12.28125 27.394531 14.144531 20 15.34375 C 17.875 15.6875 15.75 15.976562 13.625 16.21875 C 11.507812 16.457031 9.382812 16.578125 7.25 16.578125 C 6.5625 16.578125 5.867188 16.566406 5.171875 16.546875 C 4.128906 16.546875 3.128906 16.40625 2.171875 16.125 C 1.773438 16.039062 1.410156 15.914062 1.078125 15.75 C 0.773438 15.632812 0.519531 15.472656 0.3125 15.265625 C 0.101562 15.066406 0.0078125 14.785156 0.03125 14.421875 C 0.09375 14.066406 0.242188 13.765625 0.484375 13.515625 C 0.734375 13.265625 1.019531 13.054688 1.34375 12.890625 C 2.300781 12.335938 3.316406 11.96875 4.390625 11.78125 C 4.910156 11.644531 5.445312 11.519531 6 11.40625 C 7.800781 10.988281 9.609375 10.644531 11.421875 10.375 C 18.710938 9.289062 25.976562 8.585938 33.21875 8.265625 C 33.65625 8.222656 34.082031 8.191406 34.5 8.171875 C 36.726562 8.054688 38.960938 7.960938 41.203125 7.890625 C 42.003906 7.859375 42.804688 7.707031 43.609375 7.4375 C 46.367188 6.40625 49.085938 5.253906 51.765625 3.984375 C 54.441406 2.722656 57.0625 1.289062 59.625 -0.3125 C 61.757812 -1.613281 63.722656 -3.144531 65.515625 -4.90625 C 66.535156 -5.875 67.363281 -6.96875 68 -8.1875 C 68.851562 -9.957031 68.695312 -11.488281 67.53125 -12.78125 C 66.707031 -13.632812 65.726562 -14.300781 64.59375 -14.78125 C 63.101562 -15.46875 61.550781 -16.015625 59.9375 -16.421875 C 58.320312 -16.835938 56.6875 -17.195312 55.03125 -17.5 C 50.34375 -18.269531 45.554688 -18.742188 40.671875 -18.921875 C 40.492188 -18.921875 40.328125 -18.921875 40.171875 -18.921875 C 39.984375 -18.921875 39.785156 -18.921875 39.578125 -18.921875 C 39.171875 -18.859375 38.859375 -18.601562 38.640625 -18.15625 C 38.523438 -17.96875 38.425781 -17.785156 38.34375 -17.609375 C 38.125 -17.203125 37.90625 -16.789062 37.6875 -16.375 C 35.945312 -12.875 34.21875 -9.382812 32.5 -5.90625 C 31.070312 -2.945312 29.625 -0.00390625 28.15625 2.921875 C 28.132812 3.035156 28.097656 3.128906 28.046875 3.203125 C 27.867188 3.566406 27.671875 3.910156 27.453125 4.234375 C 27.203125 4.515625 26.914062 4.628906 26.59375 4.578125 C 26.394531 4.597656 26.203125 4.582031 26.015625 4.53125 C 25.671875 4.351562 25.554688 4.09375 25.671875 3.75 C 25.972656 2.96875 26.304688 2.207031 26.671875 1.46875 C 28.859375 -3.175781 31.039062 -7.800781 33.21875 -12.40625 C 33.9375 -13.875 34.640625 -15.332031 35.328125 -16.78125 C 35.378906 -16.925781 35.4375 -17.054688 35.5 -17.171875 C 35.664062 -17.503906 35.816406 -17.832031 35.953125 -18.15625 C 36.140625 -18.664062 35.988281 -18.929688 35.5 -18.953125 C 35.25 -18.972656 35 -18.984375 34.75 -18.984375 C 34.414062 -19.015625 34.09375 -19.039062 33.78125 -19.0625 C 33.726562 -19.0625 33.660156 -19.0625 33.578125 -19.0625 C 33.203125 -19.101562 32.847656 -19.171875 32.515625 -19.265625 C 32.179688 -19.359375 31.984375 -19.613281 31.921875 -20.03125 C 31.921875 -20.488281 32.078125 -20.832031 32.390625 -21.0625 C 32.710938 -21.289062 33.070312 -21.472656 33.46875 -21.609375 C 33.601562 -21.660156 33.726562 -21.695312 33.84375 -21.71875 C 34.882812 -22.15625 35.941406 -22.546875 37.015625 -22.890625 C 37.128906 -22.941406 37.257812 -22.976562 37.40625 -23 C 38.226562 -23.25 38.847656 -23.773438 39.265625 -24.578125 C 41.109375 -28.078125 42.957031 -31.570312 44.8125 -35.0625 C 45.4375 -36.269531 46.082031 -37.492188 46.75 -38.734375 C 46.84375 -38.910156 46.925781 -39.082031 47 -39.25 C 47.164062 -39.59375 47.359375 -39.9375 47.578125 -40.28125 C 47.859375 -40.695312 48.21875 -40.859375 48.65625 -40.765625 C 48.851562 -40.796875 49.046875 -40.785156 49.234375 -40.734375 C 49.648438 -40.546875 49.773438 -40.222656 49.609375 -39.765625 C 49.609375 -39.742188 49.597656 -39.734375 49.578125 -39.734375 C 49.265625 -38.796875 48.890625 -37.882812 48.453125 -37 C 47.367188 -34.882812 46.265625 -32.757812 45.140625 -30.625 C 44.785156 -29.90625 44.414062 -29.191406 44.03125 -28.484375 C 43.820312 -28.117188 43.625 -27.757812 43.4375 -27.40625 C 43.113281 -26.789062 42.796875 -26.171875 42.484375 -25.546875 C 42.484375 -25.546875 42.46875 -25.523438 42.4375 -25.484375 C 42.394531 -25.378906 42.359375 -25.269531 42.328125 -25.15625 C 42.296875 -25.050781 42.347656 -24.972656 42.484375 -24.921875 C 42.566406 -24.878906 42.65625 -24.847656 42.75 -24.828125 L 42.8125 -24.859375 C 42.976562 -24.898438 43.160156 -24.945312 43.359375 -25 C 43.410156 -25.019531 43.460938 -25.046875 43.515625 -25.078125 C 49.566406 -26.984375 55.609375 -28.957031 61.640625 -31 C 67.671875 -33.039062 73.671875 -35.238281 79.640625 -37.59375 C 79.773438 -37.632812 79.898438 -37.671875 80.015625 -37.703125 C 81.828125 -38.453125 83.632812 -39.207031 85.4375 -39.96875 C 87.25 -40.726562 89.039062 -41.546875 90.8125 -42.421875 C 92.132812 -43.066406 93.378906 -43.828125 94.546875 -44.703125 C 97.023438 -46.722656 97.128906 -48.53125 94.859375 -50.125 C 93.796875 -50.851562 92.632812 -51.40625 91.375 -51.78125 C 90.113281 -52.164062 88.820312 -52.441406 87.5 -52.609375 C 84.351562 -53.085938 81.164062 -53.328125 77.9375 -53.328125 L 77.890625 -53.328125 C 74.773438 -53.296875 71.628906 -53.144531 68.453125 -52.875 C 61.410156 -52.257812 54.382812 -51.066406 47.375 -49.296875 C 40.914062 -47.703125 34.578125 -45.523438 28.359375 -42.765625 C 26.734375 -42.046875 25.148438 -41.226562 23.609375 -40.3125 C 23.160156 -40.039062 22.71875 -39.789062 22.28125 -39.5625 C 22.03125 -39.457031 21.789062 -39.429688 21.5625 -39.484375 C 21.269531 -39.429688 21.023438 -39.515625 20.828125 -39.734375 C 20.691406 -39.929688 20.6875 -40.109375 20.8125 -40.265625 C 20.9375 -40.429688 21.09375 -40.570312 21.28125 -40.6875 C 22.613281 -41.632812 23.992188 -42.421875 25.421875 -43.046875 C 25.453125 -43.046875 25.476562 -43.054688 25.5 -43.078125 C 31.363281 -45.835938 37.359375 -48.046875 43.484375 -49.703125 C 52.316406 -52.140625 61.191406 -53.660156 70.109375 -54.265625 C 72.867188 -54.460938 75.617188 -54.5625 78.359375 -54.5625 C 81.328125 -54.59375 84.273438 -54.441406 87.203125 -54.109375 C 89.960938 -53.835938 92.582031 -53.195312 95.0625 -52.1875 C 96.226562 -51.75 97.238281 -51.09375 98.09375 -50.21875 C 98.8125 -49.4375 99.128906 -48.578125 99.046875 -47.640625 C 98.960938 -46.710938 98.507812 -45.789062 97.6875 -44.875 C 96.632812 -43.820312 95.460938 -42.945312 94.171875 -42.25 C 92.597656 -41.375 90.992188 -40.578125 89.359375 -39.859375 C 87.734375 -39.148438 86.09375 -38.460938 84.4375 -37.796875 C 84.382812 -37.765625 84.316406 -37.734375 84.234375 -37.703125 C 78.453125 -35.328125 72.628906 -33.125 66.765625 -31.09375 C 60.898438 -29.070312 55.015625 -27.117188 49.109375 -25.234375 C 48.117188 -24.910156 47.125 -24.582031 46.125 -24.25 C 44.75 -23.78125 43.367188 -23.328125 41.984375 -22.890625 C 41.390625 -22.753906 40.910156 -22.421875 40.546875 -21.890625 C 40.242188 -21.390625 40.109375 -21 40.140625 -20.71875 C 40.179688 -20.445312 40.5 -20.296875 41.09375 -20.265625 C 42.65625 -20.222656 44.222656 -20.144531 45.796875 -20.03125 C 45.910156 -20.03125 46.007812 -20.03125 46.09375 -20.03125 C 49.070312 -19.84375 52.007812 -19.523438 54.90625 -19.078125 C 57.800781 -18.628906 60.628906 -17.976562 63.390625 -17.125 C 64.578125 -16.738281 65.722656 -16.300781 66.828125 -15.8125 C 67.578125 -15.46875 68.28125 -15.050781 68.9375 -14.5625 C 71.789062 -12.351562 72 -9.578125 69.5625 -6.234375 C 68.757812 -5.128906 67.835938 -4.125 66.796875 -3.21875 C 64.222656 -1.007812 61.460938 0.894531 58.515625 2.5 C 55.972656 3.90625 53.390625 5.207031 50.765625 6.40625 C 50.460938 6.5 50.148438 6.632812 49.828125 6.8125 C 49.660156 6.882812 49.476562 6.96875 49.28125 7.0625 C 49.4375 7.3125 49.582031 7.457031 49.71875 7.5 C 49.863281 7.550781 50.023438 7.566406 50.203125 7.546875 C 50.203125 7.546875 50.210938 7.546875 50.234375 7.546875 C 50.703125 7.566406 51.15625 7.578125 51.59375 7.578125 L 51.640625 7.578125 C 51.941406 7.578125 52.242188 7.566406 52.546875 7.546875 C 53.929688 7.546875 55.3125 7.546875 56.6875 7.546875 C 64.882812 7.566406 73.039062 7.75 81.15625 8.09375 C 89.988281 8.394531 98.785156 8.9375 107.546875 9.71875 C 110.328125 9.945312 113.113281 10.191406 115.90625 10.453125 C 119.269531 10.722656 122.625 11.007812 125.96875 11.3125 C 127.925781 11.507812 129.875 11.75 131.8125 12.03125 C 132.269531 12.082031 132.75 12.140625 133.25 12.203125 C 133.601562 12.242188 133.960938 12.347656 134.328125 12.515625 Z M 36.984375 -20.578125 C 37.035156 -20.597656 37.085938 -20.648438 37.140625 -20.734375 C 37.203125 -20.816406 37.242188 -20.882812 37.265625 -20.9375 C 37.265625 -21 37.25 -21.039062 37.21875 -21.0625 C 37.195312 -21.082031 37.15625 -21.125 37.09375 -21.1875 C 37.09375 -21.1875 37.082031 -21.203125 37.0625 -21.234375 C 36.757812 -21.171875 36.484375 -21.019531 36.234375 -20.78125 C 36.179688 -20.71875 36.160156 -20.648438 36.171875 -20.578125 C 36.179688 -20.515625 36.234375 -20.484375 36.328125 -20.484375 C 36.535156 -20.484375 36.753906 -20.515625 36.984375 -20.578125 Z M 34.921875 10.328125 C 34.960938 10.296875 35.015625 10.28125 35.078125 10.28125 C 35.179688 10.25 35.289062 10.195312 35.40625 10.125 C 35.519531 10.0625 35.597656 9.960938 35.640625 9.828125 C 35.597656 9.710938 35.550781 9.644531 35.5 9.625 C 35.457031 9.625 35.425781 9.625 35.40625 9.625 C 28.726562 9.914062 22.035156 10.476562 15.328125 11.3125 C 12.015625 11.695312 8.710938 12.316406 5.421875 13.171875 C 5.347656 13.210938 5.265625 13.242188 5.171875 13.265625 C 4.597656 13.378906 4.078125 13.613281 3.609375 13.96875 C 3.492188 14.050781 3.421875 14.144531 3.390625 14.25 C 3.359375 14.363281 3.414062 14.460938 3.5625 14.546875 C 3.832031 14.660156 4.125 14.753906 4.4375 14.828125 C 5.507812 15.023438 6.597656 15.125 7.703125 15.125 C 8.640625 15.125 9.578125 15.082031 10.515625 15 C 18.691406 14.3125 26.828125 12.753906 34.921875 10.328125 Z M 34.921875 10.328125 "/></g></g></g><g fill="#ffffff" fill-opacity="1"><g transform="translate(161.64591, 115.12859)"><g><path d="M 3 -4.453125 L 2.9375 -4.453125 C 1.113281 -4.484375 -0.0820312 -4.890625 -0.65625 -5.671875 C -1.238281 -6.453125 -1.210938 -7.5 -0.578125 -8.8125 C -0.0546875 -9.800781 0.601562 -10.664062 1.40625 -11.40625 C 1.6875 -11.65625 1.96875 -11.851562 2.25 -12 C 2.539062 -12.15625 2.867188 -12.234375 3.234375 -12.234375 C 3.453125 -12.273438 3.695312 -12.238281 3.96875 -12.125 C 4.0625 -12.09375 4.148438 -12.0625 4.234375 -12.03125 C 4.453125 -12.0625 4.660156 -12.128906 4.859375 -12.234375 C 4.910156 -12.273438 4.976562 -12.304688 5.0625 -12.328125 C 5.476562 -12.492188 5.914062 -12.5625 6.375 -12.53125 C 6.5625 -12.53125 6.757812 -12.53125 6.96875 -12.53125 C 7.707031 -12.414062 8.265625 -12.101562 8.640625 -11.59375 C 9.015625 -11.09375 9.144531 -10.476562 9.03125 -9.75 C 8.96875 -9.3125 8.832031 -8.894531 8.625 -8.5 C 7.175781 -5.914062 5.335938 -4.566406 3.109375 -4.453125 Z M 5.96875 -11.203125 C 4.976562 -11.234375 4.097656 -10.941406 3.328125 -10.328125 C 2.554688 -9.722656 1.976562 -9.023438 1.59375 -8.234375 C 1.21875 -7.453125 1.113281 -6.804688 1.28125 -6.296875 C 1.457031 -5.785156 1.984375 -5.644531 2.859375 -5.875 C 3.847656 -6.175781 4.722656 -6.738281 5.484375 -7.5625 C 6.242188 -8.394531 6.707031 -9.179688 6.875 -9.921875 C 7.050781 -10.671875 6.75 -11.097656 5.96875 -11.203125 Z M 5.96875 -11.203125 "/></g></g></g><g fill="#ffffff" fill-opacity="1"><g transform="translate(171.639978, 115.12859)"><g><path d="M 3 -4.453125 L 2.9375 -4.453125 C 1.113281 -4.484375 -0.0820312 -4.890625 -0.65625 -5.671875 C -1.238281 -6.453125 -1.210938 -7.5 -0.578125 -8.8125 C -0.0546875 -9.800781 0.601562 -10.664062 1.40625 -11.40625 C 1.6875 -11.65625 1.96875 -11.851562 2.25 -12 C 2.539062 -12.15625 2.867188 -12.234375 3.234375 -12.234375 C 3.453125 -12.273438 3.695312 -12.238281 3.96875 -12.125 C 4.0625 -12.09375 4.148438 -12.0625 4.234375 -12.03125 C 4.453125 -12.0625 4.660156 -12.128906 4.859375 -12.234375 C 4.910156 -12.273438 4.976562 -12.304688 5.0625 -12.328125 C 5.476562 -12.492188 5.914062 -12.5625 6.375 -12.53125 C 6.5625 -12.53125 6.757812 -12.53125 6.96875 -12.53125 C 7.707031 -12.414062 8.265625 -12.101562 8.640625 -11.59375 C 9.015625 -11.09375 9.144531 -10.476562 9.03125 -9.75 C 8.96875 -9.3125 8.832031 -8.894531 8.625 -8.5 C 7.175781 -5.914062 5.335938 -4.566406 3.109375 -4.453125 Z M 5.96875 -11.203125 C 4.976562 -11.234375 4.097656 -10.941406 3.328125 -10.328125 C 2.554688 -9.722656 1.976562 -9.023438 1.59375 -8.234375 C 1.21875 -7.453125 1.113281 -6.804688 1.28125 -6.296875 C 1.457031 -5.785156 1.984375 -5.644531 2.859375 -5.875 C 3.847656 -6.175781 4.722656 -6.738281 5.484375 -7.5625 C 6.242188 -8.394531 6.707031 -9.179688 6.875 -9.921875 C 7.050781 -10.671875 6.75 -11.097656 5.96875 -11.203125 Z M 5.96875 -11.203125 "/></g></g></g><g fill="#ffffff" fill-opacity="1"><g transform="translate(181.634045, 115.12859)"><g><path d="M 14.59375 -9.59375 C 14.6875 -9.457031 14.707031 -9.320312 14.65625 -9.1875 C 14.613281 -9.050781 14.519531 -8.925781 14.375 -8.8125 C 13.507812 -8.03125 12.546875 -7.40625 11.484375 -6.9375 C 9.648438 -6.09375 7.726562 -5.566406 5.71875 -5.359375 C 4.132812 -5.203125 2.628906 -5.441406 1.203125 -6.078125 C 0.679688 -6.316406 0.289062 -6.191406 0.03125 -5.703125 C -0.3125 -5.015625 -0.679688 -4.320312 -1.078125 -3.625 C -1.265625 -3.238281 -1.46875 -2.835938 -1.6875 -2.421875 C -1.71875 -2.378906 -1.742188 -2.328125 -1.765625 -2.265625 C -1.859375 -2.117188 -1.941406 -1.984375 -2.015625 -1.859375 C -2.097656 -1.734375 -2.242188 -1.644531 -2.453125 -1.59375 C -2.546875 -1.570312 -2.648438 -1.5625 -2.765625 -1.5625 C -2.878906 -1.5625 -2.976562 -1.585938 -3.0625 -1.640625 C -3.144531 -1.703125 -3.210938 -1.785156 -3.265625 -1.890625 C -3.316406 -1.992188 -3.34375 -2.101562 -3.34375 -2.21875 C -3.257812 -2.582031 -3.132812 -2.941406 -2.96875 -3.296875 C -2.625 -4.097656 -2.28125 -4.890625 -1.9375 -5.671875 C -1.082031 -7.648438 -0.1875 -9.601562 0.75 -11.53125 C 3.351562 -16.863281 5.828125 -22.25 8.171875 -27.6875 C 8.359375 -28.21875 8.613281 -28.6875 8.9375 -29.09375 C 9.1875 -29.394531 9.53125 -29.476562 9.96875 -29.34375 C 10.425781 -29.15625 10.566406 -28.835938 10.390625 -28.390625 C 10.085938 -27.453125 9.757812 -26.515625 9.40625 -25.578125 C 7.664062 -21.273438 5.757812 -17.050781 3.6875 -12.90625 C 3.25 -12.019531 3.09375 -11.457031 3.21875 -11.21875 C 3.34375 -10.988281 3.632812 -10.972656 4.09375 -11.171875 C 4.5625 -11.367188 5.101562 -11.628906 5.71875 -11.953125 C 6.15625 -12.203125 6.597656 -12.421875 7.046875 -12.609375 C 7.128906 -12.671875 7.207031 -12.71875 7.28125 -12.75 C 7.8125 -13.039062 8.382812 -13.203125 9 -13.234375 C 9.238281 -13.234375 9.414062 -13.125 9.53125 -12.90625 C 9.59375 -12.769531 9.59375 -12.648438 9.53125 -12.546875 C 9.476562 -12.453125 9.40625 -12.378906 9.3125 -12.328125 C 8.375 -11.773438 7.421875 -11.25 6.453125 -10.75 C 5.992188 -10.53125 5.507812 -10.296875 5 -10.046875 C 4.507812 -9.828125 4.03125 -9.585938 3.5625 -9.328125 C 3.226562 -9.140625 2.925781 -8.921875 2.65625 -8.671875 C 2.007812 -8.003906 2.078125 -7.453125 2.859375 -7.015625 C 3.503906 -6.742188 4.148438 -6.597656 4.796875 -6.578125 C 5.441406 -6.566406 6.082031 -6.644531 6.71875 -6.8125 C 8.695312 -7.25 10.5625 -7.972656 12.3125 -8.984375 C 12.445312 -9.054688 12.582031 -9.125 12.71875 -9.1875 C 13.050781 -9.394531 13.398438 -9.582031 13.765625 -9.75 C 13.898438 -9.8125 14.046875 -9.835938 14.203125 -9.828125 C 14.367188 -9.816406 14.5 -9.738281 14.59375 -9.59375 Z M 14.59375 -9.59375 "/></g></g></g><g fill="#ffffff" fill-opacity="1"><g transform="translate(194.884176, 115.12859)"><g><path d="M 9.109375 -9.546875 C 7.128906 -8.804688 5.695312 -8.203125 4.8125 -7.734375 C 4.175781 -7.421875 3.8125 -7.160156 3.71875 -6.953125 C 3.625 -6.742188 3.695312 -6.363281 3.9375 -5.8125 C 3.9375 -5.789062 3.953125 -5.753906 3.984375 -5.703125 C 4.265625 -5.035156 4.429688 -4.34375 4.484375 -3.625 C 4.566406 -2.1875 3.335938 -1.175781 0.796875 -0.59375 C -1.742188 -0.0195312 -3.441406 -0.00390625 -4.296875 -0.546875 C -5.160156 -1.085938 -5.425781 -1.769531 -5.09375 -2.59375 C -4.757812 -3.425781 -3.894531 -4.269531 -2.5 -5.125 C -1.113281 -5.976562 -0.1875 -6.59375 0.28125 -6.96875 C 0.757812 -7.34375 0.90625 -7.757812 0.71875 -8.21875 C 0.65625 -8.382812 0.585938 -8.550781 0.515625 -8.71875 C 0.347656 -9.101562 0.175781 -9.503906 0 -9.921875 C -0.320312 -10.671875 -0.460938 -11.410156 -0.421875 -12.140625 C -0.378906 -12.867188 -0.113281 -13.476562 0.375 -13.96875 C 0.875 -14.46875 1.644531 -14.738281 2.6875 -14.78125 C 3.28125 -14.800781 3.804688 -14.71875 4.265625 -14.53125 C 4.734375 -14.351562 5.109375 -14.019531 5.390625 -13.53125 C 5.609375 -13.195312 5.535156 -12.890625 5.171875 -12.609375 C 4.929688 -12.421875 4.675781 -12.394531 4.40625 -12.53125 C 4.226562 -12.601562 4.054688 -12.710938 3.890625 -12.859375 C 3.890625 -12.890625 3.890625 -12.90625 3.890625 -12.90625 C 3.816406 -12.957031 3.75 -13.007812 3.6875 -13.0625 C 3.613281 -13.175781 3.53125 -13.265625 3.4375 -13.328125 C 3.113281 -13.566406 2.785156 -13.640625 2.453125 -13.546875 C 2.117188 -13.453125 1.875 -13.195312 1.71875 -12.78125 C 1.601562 -12.457031 1.546875 -12.125 1.546875 -11.78125 C 1.566406 -11.363281 1.660156 -10.960938 1.828125 -10.578125 C 1.941406 -10.335938 2.039062 -10.117188 2.125 -9.921875 C 2.34375 -9.367188 2.519531 -8.988281 2.65625 -8.78125 C 2.789062 -8.570312 2.953125 -8.484375 3.140625 -8.515625 C 3.335938 -8.546875 5.117188 -9.179688 8.484375 -10.421875 C 9.210938 -10.660156 9.421875 -10.367188 9.109375 -9.546875 Z M 0.953125 -2.359375 C 1.835938 -2.648438 2.210938 -3.238281 2.078125 -4.125 C 2.078125 -4.1875 2.0625 -4.253906 2.03125 -4.328125 C 1.976562 -4.804688 1.875 -5.171875 1.71875 -5.421875 C 1.570312 -5.679688 1.238281 -5.675781 0.71875 -5.40625 C -0.59375 -4.664062 -1.800781 -3.796875 -2.90625 -2.796875 C -2.976562 -2.710938 -3.046875 -2.632812 -3.109375 -2.5625 C -3.109375 -2.5625 -3.117188 -2.539062 -3.140625 -2.5 C -3.210938 -2.40625 -3.222656 -2.289062 -3.171875 -2.15625 C -3.128906 -2.03125 -3.019531 -1.96875 -2.84375 -1.96875 C -1.550781 -1.769531 -0.285156 -1.898438 0.953125 -2.359375 Z M 0.953125 -2.359375 "/></g></g></g><g fill="#ffffff" fill-opacity="1"><g transform="translate(203.213413, 115.12859)"><g/></g></g><g fill="#ffffff" fill-opacity="1"><g transform="translate(56.856669, 143.700234)"><g><path d="M 4.3125 -0.46875 L 4.3125 0 L 0.671875 0 L 0.671875 -5.40625 L 4.25 -5.40625 L 4.25 -4.9375 L 1.21875 -4.9375 L 1.21875 -2.984375 L 3.859375 -2.984375 L 3.859375 -2.546875 L 1.21875 -2.546875 L 1.21875 -0.46875 Z M 4.3125 -0.46875 "/></g></g></g><g fill="#ffffff" fill-opacity="1"><g transform="translate(66.348084, 143.700234)"><g><path d="M 0.5 -1.84375 L 0.5 -2.3125 L 2.71875 -2.3125 L 2.71875 -1.84375 Z M 0.5 -1.84375 "/></g></g></g><g fill="#ffffff" fill-opacity="1"><g transform="translate(74.412736, 143.700234)"><g><path d="M 4.75 -1.390625 C 4.75 -1.191406 4.707031 -1.003906 4.625 -0.828125 C 4.539062 -0.660156 4.429688 -0.515625 4.296875 -0.390625 C 4.160156 -0.265625 4 -0.164062 3.8125 -0.09375 C 3.632812 -0.03125 3.441406 0 3.234375 0 L 0.671875 0 L 0.671875 -5.40625 L 3.28125 -5.40625 C 3.46875 -5.40625 3.640625 -5.363281 3.796875 -5.28125 C 3.953125 -5.207031 4.082031 -5.101562 4.1875 -4.96875 C 4.289062 -4.84375 4.367188 -4.695312 4.421875 -4.53125 C 4.484375 -4.363281 4.515625 -4.195312 4.515625 -4.03125 C 4.515625 -3.757812 4.445312 -3.507812 4.3125 -3.28125 C 4.175781 -3.050781 3.988281 -2.882812 3.75 -2.78125 C 4.050781 -2.6875 4.289062 -2.515625 4.46875 -2.265625 C 4.65625 -2.015625 4.75 -1.722656 4.75 -1.390625 Z M 4.21875 -1.484375 C 4.21875 -1.617188 4.191406 -1.75 4.140625 -1.875 C 4.097656 -2 4.035156 -2.109375 3.953125 -2.203125 C 3.867188 -2.296875 3.769531 -2.367188 3.65625 -2.421875 C 3.539062 -2.484375 3.414062 -2.515625 3.28125 -2.515625 L 1.21875 -2.515625 L 1.21875 -0.46875 L 3.234375 -0.46875 C 3.367188 -0.46875 3.492188 -0.492188 3.609375 -0.546875 C 3.734375 -0.609375 3.835938 -0.6875 3.921875 -0.78125 C 4.015625 -0.875 4.085938 -0.976562 4.140625 -1.09375 C 4.191406 -1.21875 4.21875 -1.347656 4.21875 -1.484375 Z M 1.21875 -4.953125 L 1.21875 -2.953125 L 3.078125 -2.953125 C 3.203125 -2.953125 3.320312 -2.976562 3.4375 -3.03125 C 3.550781 -3.09375 3.648438 -3.164062 3.734375 -3.25 C 3.816406 -3.34375 3.878906 -3.445312 3.921875 -3.5625 C 3.972656 -3.6875 4 -3.816406 4 -3.953125 C 4 -4.085938 3.972656 -4.210938 3.921875 -4.328125 C 3.878906 -4.453125 3.816406 -4.554688 3.734375 -4.640625 C 3.660156 -4.734375 3.570312 -4.804688 3.46875 -4.859375 C 3.363281 -4.921875 3.25 -4.953125 3.125 -4.953125 Z M 1.21875 -4.953125 "/></g></g></g><g fill="#ffffff" fill-opacity="1"><g transform="translate(84.339049, 143.700234)"><g><path d="M 2.859375 0.03125 C 2.484375 0.03125 2.140625 -0.0390625 1.828125 -0.1875 C 1.515625 -0.34375 1.242188 -0.550781 1.015625 -0.8125 C 0.796875 -1.070312 0.625 -1.363281 0.5 -1.6875 C 0.375 -2.019531 0.3125 -2.359375 0.3125 -2.703125 C 0.3125 -3.066406 0.375 -3.410156 0.5 -3.734375 C 0.632812 -4.066406 0.816406 -4.359375 1.046875 -4.609375 C 1.273438 -4.867188 1.546875 -5.070312 1.859375 -5.21875 C 2.171875 -5.375 2.503906 -5.453125 2.859375 -5.453125 C 3.242188 -5.453125 3.59375 -5.367188 3.90625 -5.203125 C 4.21875 -5.046875 4.484375 -4.835938 4.703125 -4.578125 C 4.921875 -4.316406 5.09375 -4.019531 5.21875 -3.6875 C 5.34375 -3.363281 5.40625 -3.035156 5.40625 -2.703125 C 5.40625 -2.335938 5.335938 -1.988281 5.203125 -1.65625 C 5.078125 -1.332031 4.898438 -1.039062 4.671875 -0.78125 C 4.441406 -0.53125 4.171875 -0.332031 3.859375 -0.1875 C 3.554688 -0.0390625 3.222656 0.03125 2.859375 0.03125 Z M 0.859375 -2.703125 C 0.859375 -2.410156 0.90625 -2.128906 1 -1.859375 C 1.09375 -1.585938 1.226562 -1.34375 1.40625 -1.125 C 1.582031 -0.914062 1.789062 -0.75 2.03125 -0.625 C 2.28125 -0.5 2.554688 -0.4375 2.859375 -0.4375 C 3.160156 -0.4375 3.4375 -0.503906 3.6875 -0.640625 C 3.9375 -0.773438 4.144531 -0.945312 4.3125 -1.15625 C 4.488281 -1.375 4.625 -1.613281 4.71875 -1.875 C 4.8125 -2.144531 4.859375 -2.421875 4.859375 -2.703125 C 4.859375 -3.003906 4.804688 -3.289062 4.703125 -3.5625 C 4.609375 -3.832031 4.472656 -4.070312 4.296875 -4.28125 C 4.117188 -4.488281 3.90625 -4.65625 3.65625 -4.78125 C 3.414062 -4.90625 3.148438 -4.96875 2.859375 -4.96875 C 2.554688 -4.96875 2.28125 -4.898438 2.03125 -4.765625 C 1.78125 -4.640625 1.566406 -4.46875 1.390625 -4.25 C 1.222656 -4.039062 1.09375 -3.800781 1 -3.53125 C 0.90625 -3.257812 0.859375 -2.984375 0.859375 -2.703125 Z M 0.859375 -2.703125 "/></g></g></g><g fill="#ffffff" fill-opacity="1"><g transform="translate(94.9139, 143.700234)"><g><path d="M 2.859375 0.03125 C 2.484375 0.03125 2.140625 -0.0390625 1.828125 -0.1875 C 1.515625 -0.34375 1.242188 -0.550781 1.015625 -0.8125 C 0.796875 -1.070312 0.625 -1.363281 0.5 -1.6875 C 0.375 -2.019531 0.3125 -2.359375 0.3125 -2.703125 C 0.3125 -3.066406 0.375 -3.410156 0.5 -3.734375 C 0.632812 -4.066406 0.816406 -4.359375 1.046875 -4.609375 C 1.273438 -4.867188 1.546875 -5.070312 1.859375 -5.21875 C 2.171875 -5.375 2.503906 -5.453125 2.859375 -5.453125 C 3.242188 -5.453125 3.59375 -5.367188 3.90625 -5.203125 C 4.21875 -5.046875 4.484375 -4.835938 4.703125 -4.578125 C 4.921875 -4.316406 5.09375 -4.019531 5.21875 -3.6875 C 5.34375 -3.363281 5.40625 -3.035156 5.40625 -2.703125 C 5.40625 -2.335938 5.335938 -1.988281 5.203125 -1.65625 C 5.078125 -1.332031 4.898438 -1.039062 4.671875 -0.78125 C 4.441406 -0.53125 4.171875 -0.332031 3.859375 -0.1875 C 3.554688 -0.0390625 3.222656 0.03125 2.859375 0.03125 Z M 0.859375 -2.703125 C 0.859375 -2.410156 0.90625 -2.128906 1 -1.859375 C 1.09375 -1.585938 1.226562 -1.34375 1.40625 -1.125 C 1.582031 -0.914062 1.789062 -0.75 2.03125 -0.625 C 2.28125 -0.5 2.554688 -0.4375 2.859375 -0.4375 C 3.160156 -0.4375 3.4375 -0.503906 3.6875 -0.640625 C 3.9375 -0.773438 4.144531 -0.945312 4.3125 -1.15625 C 4.488281 -1.375 4.625 -1.613281 4.71875 -1.875 C 4.8125 -2.144531 4.859375 -2.421875 4.859375 -2.703125 C 4.859375 -3.003906 4.804688 -3.289062 4.703125 -3.5625 C 4.609375 -3.832031 4.472656 -4.070312 4.296875 -4.28125 C 4.117188 -4.488281 3.90625 -4.65625 3.65625 -4.78125 C 3.414062 -4.90625 3.148438 -4.96875 2.859375 -4.96875 C 2.554688 -4.96875 2.28125 -4.898438 2.03125 -4.765625 C 1.78125 -4.640625 1.566406 -4.46875 1.390625 -4.25 C 1.222656 -4.039062 1.09375 -3.800781 1 -3.53125 C 0.90625 -3.257812 0.859375 -2.984375 0.859375 -2.703125 Z M 0.859375 -2.703125 "/></g></g></g><g fill="#ffffff" fill-opacity="1"><g transform="translate(105.488752, 143.700234)"><g><path d="M 0.671875 0 L 0.671875 -5.40625 L 1.21875 -5.40625 L 1.21875 -2.265625 L 4.1875 -5.40625 L 4.78125 -5.40625 L 2.5625 -3.03125 L 4.890625 0 L 4.3125 0 L 2.234375 -2.71875 L 1.21875 -1.65625 L 1.21875 0 Z M 0.671875 0 "/></g></g></g><g fill="#ffffff" fill-opacity="1"><g transform="translate(115.239581, 143.700234)"><g><path d="M 3.84375 -4.40625 C 3.6875 -4.570312 3.484375 -4.707031 3.234375 -4.8125 C 2.984375 -4.925781 2.691406 -4.984375 2.359375 -4.984375 C 1.878906 -4.984375 1.53125 -4.890625 1.3125 -4.703125 C 1.09375 -4.523438 0.984375 -4.28125 0.984375 -3.96875 C 0.984375 -3.8125 1.015625 -3.679688 1.078125 -3.578125 C 1.140625 -3.472656 1.226562 -3.378906 1.34375 -3.296875 C 1.46875 -3.222656 1.625 -3.15625 1.8125 -3.09375 C 2.007812 -3.039062 2.238281 -2.988281 2.5 -2.9375 C 2.78125 -2.875 3.035156 -2.800781 3.265625 -2.71875 C 3.503906 -2.644531 3.703125 -2.550781 3.859375 -2.4375 C 4.023438 -2.320312 4.148438 -2.179688 4.234375 -2.015625 C 4.328125 -1.859375 4.375 -1.660156 4.375 -1.421875 C 4.375 -1.171875 4.320312 -0.953125 4.21875 -0.765625 C 4.125 -0.585938 3.988281 -0.4375 3.8125 -0.3125 C 3.644531 -0.1875 3.441406 -0.09375 3.203125 -0.03125 C 2.960938 0.0195312 2.703125 0.046875 2.421875 0.046875 C 1.578125 0.046875 0.851562 -0.210938 0.25 -0.734375 L 0.515625 -1.171875 C 0.609375 -1.066406 0.722656 -0.96875 0.859375 -0.875 C 0.992188 -0.789062 1.144531 -0.710938 1.3125 -0.640625 C 1.476562 -0.578125 1.65625 -0.523438 1.84375 -0.484375 C 2.03125 -0.441406 2.226562 -0.421875 2.4375 -0.421875 C 2.863281 -0.421875 3.195312 -0.5 3.4375 -0.65625 C 3.6875 -0.8125 3.8125 -1.046875 3.8125 -1.359375 C 3.8125 -1.523438 3.773438 -1.664062 3.703125 -1.78125 C 3.628906 -1.894531 3.523438 -1.992188 3.390625 -2.078125 C 3.253906 -2.171875 3.082031 -2.242188 2.875 -2.296875 C 2.675781 -2.359375 2.441406 -2.421875 2.171875 -2.484375 C 1.890625 -2.546875 1.640625 -2.613281 1.421875 -2.6875 C 1.210938 -2.757812 1.03125 -2.847656 0.875 -2.953125 C 0.726562 -3.066406 0.617188 -3.195312 0.546875 -3.34375 C 0.472656 -3.488281 0.4375 -3.671875 0.4375 -3.890625 C 0.4375 -4.140625 0.484375 -4.363281 0.578125 -4.5625 C 0.671875 -4.757812 0.804688 -4.921875 0.984375 -5.046875 C 1.160156 -5.179688 1.363281 -5.28125 1.59375 -5.34375 C 1.820312 -5.414062 2.082031 -5.453125 2.375 -5.453125 C 2.726562 -5.453125 3.046875 -5.394531 3.328125 -5.28125 C 3.617188 -5.175781 3.878906 -5.023438 4.109375 -4.828125 Z M 3.84375 -4.40625 "/></g></g></g><g fill="#ffffff" fill-opacity="1"><g transform="translate(124.715746, 143.700234)"><g/></g></g><g fill="#ffffff" fill-opacity="1"><g transform="translate(131.506227, 143.700234)"><g><path d="M 3.84375 -4.40625 C 3.6875 -4.570312 3.484375 -4.707031 3.234375 -4.8125 C 2.984375 -4.925781 2.691406 -4.984375 2.359375 -4.984375 C 1.878906 -4.984375 1.53125 -4.890625 1.3125 -4.703125 C 1.09375 -4.523438 0.984375 -4.28125 0.984375 -3.96875 C 0.984375 -3.8125 1.015625 -3.679688 1.078125 -3.578125 C 1.140625 -3.472656 1.226562 -3.378906 1.34375 -3.296875 C 1.46875 -3.222656 1.625 -3.15625 1.8125 -3.09375 C 2.007812 -3.039062 2.238281 -2.988281 2.5 -2.9375 C 2.78125 -2.875 3.035156 -2.800781 3.265625 -2.71875 C 3.503906 -2.644531 3.703125 -2.550781 3.859375 -2.4375 C 4.023438 -2.320312 4.148438 -2.179688 4.234375 -2.015625 C 4.328125 -1.859375 4.375 -1.660156 4.375 -1.421875 C 4.375 -1.171875 4.320312 -0.953125 4.21875 -0.765625 C 4.125 -0.585938 3.988281 -0.4375 3.8125 -0.3125 C 3.644531 -0.1875 3.441406 -0.09375 3.203125 -0.03125 C 2.960938 0.0195312 2.703125 0.046875 2.421875 0.046875 C 1.578125 0.046875 0.851562 -0.210938 0.25 -0.734375 L 0.515625 -1.171875 C 0.609375 -1.066406 0.722656 -0.96875 0.859375 -0.875 C 0.992188 -0.789062 1.144531 -0.710938 1.3125 -0.640625 C 1.476562 -0.578125 1.65625 -0.523438 1.84375 -0.484375 C 2.03125 -0.441406 2.226562 -0.421875 2.4375 -0.421875 C 2.863281 -0.421875 3.195312 -0.5 3.4375 -0.65625 C 3.6875 -0.8125 3.8125 -1.046875 3.8125 -1.359375 C 3.8125 -1.523438 3.773438 -1.664062 3.703125 -1.78125 C 3.628906 -1.894531 3.523438 -1.992188 3.390625 -2.078125 C 3.253906 -2.171875 3.082031 -2.242188 2.875 -2.296875 C 2.675781 -2.359375 2.441406 -2.421875 2.171875 -2.484375 C 1.890625 -2.546875 1.640625 -2.613281 1.421875 -2.6875 C 1.210938 -2.757812 1.03125 -2.847656 0.875 -2.953125 C 0.726562 -3.066406 0.617188 -3.195312 0.546875 -3.34375 C 0.472656 -3.488281 0.4375 -3.671875 0.4375 -3.890625 C 0.4375 -4.140625 0.484375 -4.363281 0.578125 -4.5625 C 0.671875 -4.757812 0.804688 -4.921875 0.984375 -5.046875 C 1.160156 -5.179688 1.363281 -5.28125 1.59375 -5.34375 C 1.820312 -5.414062 2.082031 -5.453125 2.375 -5.453125 C 2.726562 -5.453125 3.046875 -5.394531 3.328125 -5.28125 C 3.617188 -5.175781 3.878906 -5.023438 4.109375 -4.828125 Z M 3.84375 -4.40625 "/></g></g></g><g fill="#ffffff" fill-opacity="1"><g transform="translate(140.982387, 143.700234)"><g><path d="M 4.953125 -5.40625 L 4.953125 0 L 4.421875 0 L 4.421875 -2.53125 L 1.21875 -2.53125 L 1.21875 0 L 0.671875 0 L 0.671875 -5.40625 L 1.21875 -5.40625 L 1.21875 -3 L 4.421875 -3 L 4.421875 -5.40625 Z M 4.953125 -5.40625 "/></g></g></g><g fill="#ffffff" fill-opacity="1"><g transform="translate(151.458045, 143.700234)"><g><path d="M 2.359375 -5.40625 L 2.8125 -5.40625 L 5.0625 0 L 4.484375 0 L 3.796875 -1.6875 L 1.359375 -1.6875 L 0.65625 0 L 0.09375 0 Z M 3.671875 -2.109375 L 2.578125 -4.78125 L 1.46875 -2.109375 Z M 3.671875 -2.109375 "/></g></g></g><g fill="#ffffff" fill-opacity="1"><g transform="translate(161.460659, 143.700234)"><g><path d="M 0.671875 0 L 0.671875 -5.40625 L 2.96875 -5.40625 C 3.195312 -5.40625 3.410156 -5.351562 3.609375 -5.25 C 3.804688 -5.15625 3.972656 -5.03125 4.109375 -4.875 C 4.253906 -4.71875 4.363281 -4.535156 4.4375 -4.328125 C 4.519531 -4.128906 4.5625 -3.925781 4.5625 -3.71875 C 4.5625 -3.519531 4.53125 -3.328125 4.46875 -3.140625 C 4.414062 -2.960938 4.335938 -2.800781 4.234375 -2.65625 C 4.128906 -2.507812 4.003906 -2.382812 3.859375 -2.28125 C 3.710938 -2.1875 3.546875 -2.125 3.359375 -2.09375 L 4.6875 0 L 4.09375 0 L 2.8125 -2 L 1.21875 -2 L 1.21875 0 Z M 1.21875 -2.46875 L 2.984375 -2.46875 C 3.140625 -2.46875 3.28125 -2.5 3.40625 -2.5625 C 3.539062 -2.632812 3.648438 -2.726562 3.734375 -2.84375 C 3.828125 -2.96875 3.898438 -3.101562 3.953125 -3.25 C 4.003906 -3.394531 4.03125 -3.550781 4.03125 -3.71875 C 4.03125 -3.875 4 -4.023438 3.9375 -4.171875 C 3.882812 -4.328125 3.804688 -4.460938 3.703125 -4.578125 C 3.609375 -4.691406 3.492188 -4.78125 3.359375 -4.84375 C 3.222656 -4.90625 3.082031 -4.9375 2.9375 -4.9375 L 1.21875 -4.9375 Z M 1.21875 -2.46875 "/></g></g></g><g fill="#ffffff" fill-opacity="1"><g transform="translate(171.287788, 143.700234)"><g><path d="M 0.671875 0 L 0.671875 -5.40625 L 1.21875 -5.40625 L 1.21875 0 Z M 0.671875 0 "/></g></g></g><g fill="#ffffff" fill-opacity="1"><g transform="translate(178.024855, 143.700234)"><g><path d="M 1.21875 -4.421875 L 1.21875 0 L 0.671875 0 L 0.671875 -5.40625 L 1.09375 -5.40625 L 4.671875 -0.90625 L 4.671875 -5.40625 L 5.203125 -5.40625 L 5.203125 0 L 4.75 0 Z M 1.21875 -4.421875 "/></g></g></g><g fill="#ffffff" fill-opacity="1"><g transform="translate(188.759928, 143.700234)"><g><path d="M 4.59375 -0.796875 C 4.082031 -0.242188 3.503906 0.03125 2.859375 0.03125 C 2.484375 0.03125 2.140625 -0.046875 1.828125 -0.203125 C 1.523438 -0.359375 1.257812 -0.566406 1.03125 -0.828125 C 0.8125 -1.085938 0.632812 -1.378906 0.5 -1.703125 C 0.375 -2.035156 0.3125 -2.375 0.3125 -2.71875 C 0.3125 -3.070312 0.375 -3.414062 0.5 -3.75 C 0.625 -4.082031 0.796875 -4.375 1.015625 -4.625 C 1.242188 -4.875 1.507812 -5.070312 1.8125 -5.21875 C 2.125 -5.375 2.460938 -5.453125 2.828125 -5.453125 C 3.085938 -5.453125 3.328125 -5.421875 3.546875 -5.359375 C 3.765625 -5.304688 3.957031 -5.226562 4.125 -5.125 C 4.300781 -5.019531 4.453125 -4.894531 4.578125 -4.75 C 4.703125 -4.601562 4.804688 -4.441406 4.890625 -4.265625 L 4.46875 -4 C 4.289062 -4.332031 4.0625 -4.578125 3.78125 -4.734375 C 3.5 -4.890625 3.175781 -4.96875 2.8125 -4.96875 C 2.507812 -4.96875 2.238281 -4.90625 2 -4.78125 C 1.757812 -4.65625 1.550781 -4.484375 1.375 -4.265625 C 1.207031 -4.054688 1.078125 -3.816406 0.984375 -3.546875 C 0.898438 -3.273438 0.859375 -2.992188 0.859375 -2.703125 C 0.859375 -2.398438 0.910156 -2.109375 1.015625 -1.828125 C 1.117188 -1.554688 1.257812 -1.316406 1.4375 -1.109375 C 1.625 -0.910156 1.835938 -0.75 2.078125 -0.625 C 2.328125 -0.5 2.597656 -0.4375 2.890625 -0.4375 C 3.203125 -0.4375 3.5 -0.507812 3.78125 -0.65625 C 4.0625 -0.800781 4.332031 -1.03125 4.59375 -1.34375 L 4.59375 -2.25 L 3.390625 -2.25 L 3.390625 -2.65625 L 5.046875 -2.65625 L 5.046875 0 L 4.59375 0 Z M 4.59375 -0.796875 "/></g></g></g></svg>