<svg xmlns="http://www.w3.org/2000/svg" xmlns:xlink="http://www.w3.org/1999/xlink" width="500" zoomAndPan="magnify" viewBox="0 0 375 374.999991" height="500" preserveAspectRatio="xMidYMid meet" version="1.0"><defs><g/></defs><g fill="#e1a730" fill-opacity="1"><g transform="translate(19.600248, 192.383308)"><g><path d="M 175.25 -82.15625 C 174.707031 -82.03125 174.210938 -82.046875 173.765625 -82.203125 C 173.328125 -82.359375 172.921875 -82.550781 172.546875 -82.78125 C 172.359375 -82.875 172.203125 -82.972656 172.078125 -83.078125 C 166.734375 -85.960938 161.070312 -88.125 155.09375 -89.5625 C 139.519531 -93.289062 123.65625 -91.742188 107.5 -84.921875 C 101.59375 -82.429688 95.929688 -79.4375 90.515625 -75.9375 C 85.109375 -72.445312 79.832031 -68.628906 74.6875 -64.484375 C 66.394531 -57.765625 58.757812 -50.40625 51.78125 -42.40625 C 44.800781 -34.414062 38.375 -25.890625 32.5 -16.828125 C 30.363281 -13.609375 28.3125 -10.34375 26.34375 -7.03125 C 26.300781 -6.925781 26.25 -6.832031 26.1875 -6.75 C 24.675781 -4.40625 23.441406 -1.914062 22.484375 0.71875 C 22.015625 1.957031 21.4375 3.128906 20.75 4.234375 C 19.914062 5.703125 18.765625 6.257812 17.296875 5.90625 C 16.460938 5.71875 16.117188 5.179688 16.265625 4.296875 C 16.347656 3.648438 16.546875 3.035156 16.859375 2.453125 C 18.429688 -0.648438 19.816406 -3.785156 21.015625 -6.953125 C 22.222656 -10.117188 23.347656 -13.316406 24.390625 -16.546875 C 24.660156 -17.378906 24.941406 -18.1875 25.234375 -18.96875 C 31.535156 -37.425781 37.378906 -56.007812 42.765625 -74.71875 C 42.867188 -75.113281 42.941406 -75.519531 42.984375 -75.9375 C 42.984375 -76.132812 43.003906 -76.347656 43.046875 -76.578125 C 42.535156 -76.535156 42.144531 -76.367188 41.875 -76.078125 C 41.601562 -75.796875 41.375 -75.476562 41.1875 -75.125 C 41.144531 -74.976562 41.070312 -74.84375 40.96875 -74.71875 C 40.65625 -74.257812 40.363281 -73.769531 40.09375 -73.25 C 37.03125 -68.476562 33.984375 -63.671875 30.953125 -58.828125 C 26.222656 -51.085938 21.484375 -43.347656 16.734375 -35.609375 C 9.867188 -24.429688 2.960938 -13.222656 -3.984375 -1.984375 C -5.515625 0.515625 -7.128906 2.9375 -8.828125 5.28125 C -9.242188 5.882812 -9.628906 6.457031 -9.984375 7 C -10.628906 8.070312 -11.53125 8.722656 -12.6875 8.953125 C -13.019531 8.992188 -13.320312 8.976562 -13.59375 8.90625 C -13.863281 8.832031 -14.039062 8.65625 -14.125 8.375 C -14.226562 8.1875 -14.234375 7.96875 -14.140625 7.71875 C -14.046875 7.46875 -13.925781 7.25 -13.78125 7.0625 C 2.789062 -20.0625 19.410156 -47.15625 36.078125 -74.21875 C 37.597656 -76.625 39.207031 -78.976562 40.90625 -81.28125 C 41.28125 -81.78125 41.625 -82.28125 41.9375 -82.78125 C 42.90625 -84.207031 44.175781 -85.128906 45.75 -85.546875 C 46.707031 -85.734375 47.460938 -85.597656 48.015625 -85.140625 C 48.566406 -84.679688 48.820312 -83.941406 48.78125 -82.921875 C 48.507812 -79.921875 47.914062 -76.957031 47 -74.03125 C 42.4375 -58.269531 37.550781 -42.613281 32.34375 -27.0625 C 32.300781 -26.875 32.238281 -26.707031 32.15625 -26.5625 C 31.957031 -26.101562 31.820312 -25.640625 31.75 -25.171875 C 31.675781 -24.710938 31.773438 -24.210938 32.046875 -23.671875 C 32.429688 -24.171875 32.8125 -24.648438 33.1875 -25.109375 C 33.957031 -26.078125 34.6875 -27.039062 35.375 -28 C 43.582031 -39.613281 52.929688 -50.144531 63.421875 -59.59375 C 69.441406 -65.007812 75.691406 -70.007812 82.171875 -74.59375 C 88.648438 -79.175781 95.457031 -83.101562 102.59375 -86.375 C 117.332031 -92.957031 132.128906 -95.40625 146.984375 -93.71875 C 156.390625 -92.5625 165.140625 -89.835938 173.234375 -85.546875 C 173.421875 -85.460938 173.628906 -85.367188 173.859375 -85.265625 C 174.285156 -85.078125 174.679688 -84.867188 175.046875 -84.640625 C 175.410156 -84.410156 175.707031 -84.066406 175.9375 -83.609375 C 175.976562 -83.523438 176 -83.40625 176 -83.25 C 176 -83.09375 175.976562 -82.9375 175.9375 -82.78125 C 175.851562 -82.632812 175.753906 -82.503906 175.640625 -82.390625 C 175.523438 -82.273438 175.394531 -82.195312 175.25 -82.15625 Z M 175.25 -82.15625 "/></g></g></g><g fill="#e1a730" fill-opacity="1"><g transform="translate(65.117404, 192.383308)"><g><path d="M 17.890625 -12.046875 C 16.679688 -10.859375 15.269531 -9.835938 13.65625 -8.984375 C 12.039062 -8.140625 10.6875 -7.585938 9.59375 -7.328125 C 8.507812 -7.066406 7.394531 -6.914062 6.25 -6.875 C 4.40625 -6.789062 2.707031 -7.039062 1.15625 -7.625 C -1.375 -8.65625 -2.25 -10.613281 -1.46875 -13.5 C -0.738281 -15.988281 0.742188 -17.929688 2.984375 -19.328125 C 5.222656 -20.734375 7.535156 -21.414062 9.921875 -21.375 C 9.921875 -21.375 9.941406 -21.375 9.984375 -21.375 C 10.585938 -21.414062 11.160156 -21.375 11.703125 -21.25 C 12.628906 -20.914062 13.21875 -20.367188 13.46875 -19.609375 C 13.71875 -18.859375 13.550781 -18.023438 12.96875 -17.109375 C 11.625 -15.078125 9.800781 -13.945312 7.5 -13.71875 C 5.976562 -13.570312 4.503906 -13.644531 3.078125 -13.9375 C 2.804688 -13.976562 2.566406 -13.90625 2.359375 -13.71875 C 2.148438 -13.53125 2.023438 -13.300781 1.984375 -13.03125 C 1.554688 -11.226562 2.109375 -10.078125 3.640625 -9.578125 C 5.523438 -8.929688 7.484375 -8.929688 9.515625 -9.578125 C 11.859375 -10.304688 14.085938 -11.6875 16.203125 -13.71875 C 18.316406 -15.75 19.535156 -16.695312 19.859375 -16.5625 C 20.179688 -16.425781 20.28125 -16.035156 20.15625 -15.390625 C 19.863281 -14.359375 19.109375 -13.242188 17.890625 -12.046875 Z M 4.515625 -17.109375 C 4.390625 -16.960938 4.300781 -16.800781 4.25 -16.625 C 4.195312 -16.445312 4.265625 -16.285156 4.453125 -16.140625 C 5.191406 -15.722656 5.988281 -15.570312 6.84375 -15.6875 C 7.695312 -15.800781 8.421875 -16.125 9.015625 -16.65625 C 9.617188 -17.1875 9.878906 -17.84375 9.796875 -18.625 C 9.734375 -18.894531 9.585938 -19.066406 9.359375 -19.140625 C 9.128906 -19.210938 8.898438 -19.226562 8.671875 -19.1875 C 7.117188 -18.914062 5.734375 -18.222656 4.515625 -17.109375 Z M 4.515625 -17.109375 "/></g></g></g><g fill="#e1a730" fill-opacity="1"><g transform="translate(83.387048, 192.383308)"><g><path d="M 15.1875 -15.921875 C 11.882812 -14.679688 9.5 -13.675781 8.03125 -12.90625 C 6.96875 -12.382812 6.359375 -11.945312 6.203125 -11.59375 C 6.046875 -11.25 6.164062 -10.617188 6.5625 -9.703125 C 6.5625 -9.660156 6.59375 -9.597656 6.65625 -9.515625 C 7.113281 -8.398438 7.382812 -7.25 7.46875 -6.0625 C 7.613281 -3.65625 5.566406 -1.96875 1.328125 -1 C -2.898438 -0.0390625 -5.734375 -0.0078125 -7.171875 -0.90625 C -8.609375 -1.8125 -9.046875 -2.953125 -8.484375 -4.328125 C -7.929688 -5.710938 -6.492188 -7.113281 -4.171875 -8.53125 C -1.847656 -9.957031 -0.296875 -10.984375 0.484375 -11.609375 C 1.265625 -12.242188 1.5 -12.945312 1.1875 -13.71875 C 1.082031 -13.988281 0.96875 -14.257812 0.84375 -14.53125 C 0.570312 -15.1875 0.289062 -15.859375 0 -16.546875 C -0.539062 -17.796875 -0.773438 -19.03125 -0.703125 -20.25 C -0.628906 -21.46875 -0.179688 -22.488281 0.640625 -23.3125 C 1.472656 -24.132812 2.753906 -24.578125 4.484375 -24.640625 C 5.472656 -24.679688 6.351562 -24.550781 7.125 -24.25 C 7.894531 -23.945312 8.515625 -23.390625 8.984375 -22.578125 C 9.359375 -22.003906 9.242188 -21.488281 8.640625 -21.03125 C 8.234375 -20.71875 7.800781 -20.675781 7.34375 -20.90625 C 7.050781 -21.03125 6.769531 -21.207031 6.5 -21.4375 C 6.5 -21.5 6.5 -21.53125 6.5 -21.53125 C 6.375 -21.613281 6.257812 -21.695312 6.15625 -21.78125 C 6.03125 -21.976562 5.894531 -22.128906 5.75 -22.234375 C 5.195312 -22.628906 4.644531 -22.75 4.09375 -22.59375 C 3.539062 -22.4375 3.128906 -22.007812 2.859375 -21.3125 C 2.671875 -20.769531 2.578125 -20.21875 2.578125 -19.65625 C 2.617188 -18.96875 2.773438 -18.296875 3.046875 -17.640625 C 3.234375 -17.242188 3.398438 -16.878906 3.546875 -16.546875 C 3.898438 -15.617188 4.191406 -14.984375 4.421875 -14.640625 C 4.648438 -14.296875 4.925781 -14.148438 5.25 -14.203125 C 5.582031 -14.253906 8.550781 -15.316406 14.15625 -17.390625 C 15.375 -17.785156 15.71875 -17.296875 15.1875 -15.921875 Z M 1.59375 -3.921875 C 3.0625 -4.421875 3.679688 -5.40625 3.453125 -6.875 C 3.453125 -6.976562 3.429688 -7.09375 3.390625 -7.21875 C 3.304688 -8.007812 3.140625 -8.617188 2.890625 -9.046875 C 2.640625 -9.484375 2.070312 -9.472656 1.1875 -9.015625 C -0.988281 -7.773438 -2.992188 -6.328125 -4.828125 -4.671875 C -4.953125 -4.523438 -5.070312 -4.390625 -5.1875 -4.265625 C -5.1875 -4.265625 -5.207031 -4.234375 -5.25 -4.171875 C -5.375 -4.003906 -5.394531 -3.816406 -5.3125 -3.609375 C -5.226562 -3.398438 -5.035156 -3.296875 -4.734375 -3.296875 C -2.578125 -2.960938 -0.46875 -3.171875 1.59375 -3.921875 Z M 1.59375 -3.921875 "/></g></g></g><g fill="#e1a730" fill-opacity="1"><g transform="translate(97.293324, 192.383308)"><g><path d="M 25.5 -14.625 C 25.113281 -14.289062 24.710938 -13.988281 24.296875 -13.71875 C 22.960938 -12.882812 21.753906 -12.222656 20.671875 -11.734375 C 19.597656 -11.253906 18.328125 -10.765625 16.859375 -10.265625 C 14.679688 -9.617188 13.28125 -9.765625 12.65625 -10.703125 C 12.039062 -11.648438 11.945312 -12.957031 12.375 -14.625 C 12.957031 -17.007812 13.296875 -18.753906 13.390625 -19.859375 C 13.484375 -20.972656 13.113281 -21.359375 12.28125 -21.015625 C 11.457031 -20.671875 9.957031 -19.523438 7.78125 -17.578125 C 4.75 -14.960938 2.15625 -11.972656 0 -8.609375 C -0.269531 -8.140625 -0.601562 -7.757812 -1 -7.46875 C -1.394531 -7.175781 -1.890625 -7.03125 -2.484375 -7.03125 C -3.046875 -7.03125 -3.453125 -7.175781 -3.703125 -7.46875 C -3.953125 -7.757812 -3.960938 -8.160156 -3.734375 -8.671875 C -2.503906 -11.390625 -1.238281 -14.085938 0.0625 -16.765625 C 2.28125 -21.410156 4.46875 -26.035156 6.625 -30.640625 C 8.238281 -34.097656 9.828125 -37.550781 11.390625 -41 C 12.359375 -43.03125 13.300781 -45.0625 14.21875 -47.09375 C 14.300781 -47.257812 14.394531 -47.4375 14.5 -47.625 C 14.582031 -47.851562 14.679688 -48.082031 14.796875 -48.3125 C 14.910156 -48.539062 15.039062 -48.796875 15.1875 -49.078125 C 15.320312 -49.304688 15.5625 -49.492188 15.90625 -49.640625 C 16.25 -49.785156 16.59375 -49.878906 16.9375 -49.921875 C 17.28125 -49.960938 17.546875 -49.941406 17.734375 -49.859375 C 18.003906 -49.671875 18.15625 -49.46875 18.1875 -49.25 C 18.21875 -49.039062 18.179688 -48.820312 18.078125 -48.59375 C 18.035156 -48.550781 18.015625 -48.476562 18.015625 -48.375 C 17.597656 -47.144531 17.160156 -45.953125 16.703125 -44.796875 C 14.046875 -38.390625 11.144531 -32.082031 8 -25.875 C 7.769531 -25.445312 7.5 -24.941406 7.1875 -24.359375 C 6.726562 -23.523438 6.300781 -22.703125 5.90625 -21.890625 C 5.507812 -21.085938 5.378906 -20.550781 5.515625 -20.28125 C 5.648438 -20.007812 6.269531 -20.21875 7.375 -20.90625 C 7.707031 -21.132812 8.007812 -21.363281 8.28125 -21.59375 C 9.164062 -22.1875 10.035156 -22.742188 10.890625 -23.265625 C 11.648438 -23.765625 12.488281 -24.035156 13.40625 -24.078125 C 15.601562 -24.222656 16.835938 -23.226562 17.109375 -21.09375 C 17.210938 -20.238281 17.179688 -19.390625 17.015625 -18.546875 C 16.847656 -17.710938 16.648438 -16.890625 16.421875 -16.078125 C 16.378906 -15.847656 16.335938 -15.617188 16.296875 -15.390625 C 15.921875 -13.960938 16.019531 -13.144531 16.59375 -12.9375 C 17.164062 -12.726562 17.96875 -12.84375 19 -13.28125 C 20.039062 -13.71875 21.097656 -14.25 22.171875 -14.875 C 22.898438 -15.257812 23.539062 -15.585938 24.09375 -15.859375 C 24.644531 -16.128906 25.054688 -16.242188 25.328125 -16.203125 C 25.835938 -16.117188 26.070312 -15.910156 26.03125 -15.578125 C 25.988281 -15.253906 25.8125 -14.9375 25.5 -14.625 Z M 25.5 -14.625 "/></g></g></g><g fill="#e1a730" fill-opacity="1"><g transform="translate(121.244765, 192.383308)"><g/></g></g><g fill="#e1a730" fill-opacity="1"><g transform="translate(144.976468, 192.383308)"><g><path d="M 224.0625 20.875 C 224.144531 20.914062 224.203125 21.007812 224.234375 21.15625 C 224.265625 21.300781 224.28125 21.414062 224.28125 21.5 C 224.21875 21.644531 224.144531 21.757812 224.0625 21.84375 C 223.976562 21.925781 223.882812 22.003906 223.78125 22.078125 C 223.363281 22.242188 222.957031 22.304688 222.5625 22.265625 C 222.144531 22.265625 221.742188 22.242188 221.359375 22.203125 C 221.171875 22.160156 221.015625 22.140625 220.890625 22.140625 C 218.941406 21.941406 217.007812 21.726562 215.09375 21.5 C 210.570312 21.039062 206.082031 20.601562 201.625 20.1875 C 192.957031 19.414062 184.28125 18.703125 175.59375 18.046875 C 163.425781 17.210938 151.242188 16.566406 139.046875 16.109375 C 130.296875 15.796875 121.546875 15.566406 112.796875 15.421875 C 111.835938 15.378906 110.863281 15.359375 109.875 15.359375 C 108.875 15.359375 107.894531 15.335938 106.9375 15.296875 C 100.988281 15.140625 95.039062 15.0625 89.09375 15.0625 L 88.96875 15.0625 C 85.476562 15.0625 82.003906 15.140625 78.546875 15.296875 C 77.253906 15.335938 75.988281 15.359375 74.75 15.359375 C 73.175781 15.398438 71.585938 15.703125 69.984375 16.265625 C 57.898438 20.492188 45.695312 23.601562 33.375 25.59375 C 29.8125 26.175781 26.257812 26.664062 22.71875 27.0625 C 19.1875 27.457031 15.644531 27.65625 12.09375 27.65625 C 10.9375 27.65625 9.785156 27.632812 8.640625 27.59375 C 6.898438 27.59375 5.222656 27.363281 3.609375 26.90625 C 2.960938 26.757812 2.359375 26.550781 1.796875 26.28125 C 1.285156 26.09375 0.859375 25.820312 0.515625 25.46875 C 0.171875 25.125 0.0195312 24.648438 0.0625 24.046875 C 0.164062 23.460938 0.421875 22.957031 0.828125 22.53125 C 1.234375 22.113281 1.703125 21.769531 2.234375 21.5 C 3.835938 20.582031 5.53125 19.96875 7.3125 19.65625 C 8.195312 19.425781 9.097656 19.21875 10.015625 19.03125 C 13.003906 18.332031 16.019531 17.753906 19.0625 17.296875 C 31.21875 15.492188 43.332031 14.320312 55.40625 13.78125 C 56.144531 13.71875 56.859375 13.664062 57.546875 13.625 C 61.273438 13.4375 65 13.28125 68.71875 13.15625 C 70.0625 13.113281 71.398438 12.863281 72.734375 12.40625 C 77.347656 10.6875 81.882812 8.769531 86.34375 6.65625 C 90.8125 4.539062 95.179688 2.144531 99.453125 -0.53125 C 103.015625 -2.6875 106.289062 -5.238281 109.28125 -8.1875 C 110.976562 -9.800781 112.363281 -11.625 113.4375 -13.65625 C 114.851562 -16.601562 114.585938 -19.15625 112.640625 -21.3125 C 111.265625 -22.738281 109.632812 -23.847656 107.75 -24.640625 C 105.257812 -25.796875 102.664062 -26.71875 99.96875 -27.40625 C 97.28125 -28.09375 94.554688 -28.691406 91.796875 -29.203125 C 83.972656 -30.472656 75.988281 -31.253906 67.84375 -31.546875 C 67.550781 -31.546875 67.269531 -31.546875 67 -31.546875 C 66.6875 -31.546875 66.363281 -31.546875 66.03125 -31.546875 C 65.332031 -31.441406 64.804688 -31.023438 64.453125 -30.296875 C 64.265625 -29.984375 64.097656 -29.679688 63.953125 -29.390625 C 63.597656 -28.691406 63.234375 -28 62.859375 -27.3125 C 59.960938 -21.46875 57.082031 -15.648438 54.21875 -9.859375 C 51.832031 -4.921875 49.414062 -0.015625 46.96875 4.859375 C 46.925781 5.054688 46.863281 5.21875 46.78125 5.34375 C 46.488281 5.945312 46.164062 6.519531 45.8125 7.0625 C 45.382812 7.519531 44.898438 7.707031 44.359375 7.625 C 44.023438 7.664062 43.703125 7.644531 43.390625 7.5625 C 42.828125 7.269531 42.640625 6.832031 42.828125 6.25 C 43.328125 4.945312 43.878906 3.679688 44.484375 2.453125 C 48.128906 -5.296875 51.769531 -13.007812 55.40625 -20.6875 C 56.601562 -23.132812 57.773438 -25.570312 58.921875 -28 C 59.003906 -28.226562 59.097656 -28.4375 59.203125 -28.625 C 59.484375 -29.195312 59.738281 -29.753906 59.96875 -30.296875 C 60.28125 -31.128906 60.023438 -31.566406 59.203125 -31.609375 C 58.785156 -31.648438 58.367188 -31.671875 57.953125 -31.671875 C 57.410156 -31.710938 56.878906 -31.753906 56.359375 -31.796875 C 56.273438 -31.796875 56.160156 -31.796875 56.015625 -31.796875 C 55.378906 -31.859375 54.785156 -31.96875 54.234375 -32.125 C 53.679688 -32.289062 53.351562 -32.71875 53.25 -33.40625 C 53.25 -34.175781 53.515625 -34.75 54.046875 -35.125 C 54.578125 -35.507812 55.164062 -35.816406 55.8125 -36.046875 C 56.050781 -36.128906 56.265625 -36.191406 56.453125 -36.234375 C 58.179688 -36.960938 59.945312 -37.609375 61.75 -38.171875 C 61.9375 -38.253906 62.144531 -38.316406 62.375 -38.359375 C 63.757812 -38.785156 64.796875 -39.664062 65.484375 -41 C 68.566406 -46.84375 71.65625 -52.671875 74.75 -58.484375 C 75.800781 -60.492188 76.878906 -62.535156 77.984375 -64.609375 C 78.128906 -64.898438 78.265625 -65.179688 78.390625 -65.453125 C 78.660156 -66.046875 78.984375 -66.625 79.359375 -67.1875 C 79.828125 -67.875 80.425781 -68.144531 81.15625 -68 C 81.488281 -68.039062 81.8125 -68.019531 82.125 -67.9375 C 82.820312 -67.625 83.03125 -67.09375 82.75 -66.34375 C 82.75 -66.300781 82.726562 -66.28125 82.6875 -66.28125 C 82.164062 -64.707031 81.539062 -63.1875 80.8125 -61.71875 C 79.007812 -58.1875 77.164062 -54.640625 75.28125 -51.078125 C 74.695312 -49.890625 74.082031 -48.695312 73.4375 -47.5 C 73.101562 -46.894531 72.773438 -46.300781 72.453125 -45.71875 C 71.910156 -44.6875 71.378906 -43.648438 70.859375 -42.609375 C 70.859375 -42.609375 70.835938 -42.578125 70.796875 -42.515625 C 70.710938 -42.335938 70.644531 -42.15625 70.59375 -41.96875 C 70.539062 -41.78125 70.628906 -41.644531 70.859375 -41.5625 C 71.003906 -41.5 71.148438 -41.445312 71.296875 -41.40625 L 71.421875 -41.46875 C 71.691406 -41.53125 71.992188 -41.601562 72.328125 -41.6875 C 72.410156 -41.726562 72.492188 -41.769531 72.578125 -41.8125 C 82.671875 -45 92.75 -48.296875 102.8125 -51.703125 C 112.882812 -55.117188 122.890625 -58.785156 132.828125 -62.703125 C 133.054688 -62.785156 133.265625 -62.847656 133.453125 -62.890625 C 136.492188 -64.140625 139.519531 -65.394531 142.53125 -66.65625 C 145.539062 -67.925781 148.523438 -69.296875 151.484375 -70.765625 C 153.679688 -71.828125 155.753906 -73.09375 157.703125 -74.5625 C 161.835938 -77.9375 162.015625 -80.953125 158.234375 -83.609375 C 156.453125 -84.816406 154.507812 -85.738281 152.40625 -86.375 C 150.300781 -87.019531 148.148438 -87.476562 145.953125 -87.75 C 140.703125 -88.539062 135.382812 -88.9375 130 -88.9375 L 129.90625 -88.9375 C 124.71875 -88.894531 119.476562 -88.644531 114.1875 -88.1875 C 102.445312 -87.164062 90.722656 -85.175781 79.015625 -82.21875 C 68.242188 -79.5625 57.675781 -75.929688 47.3125 -71.328125 C 44.59375 -70.140625 41.945312 -68.78125 39.375 -67.25 C 38.632812 -66.789062 37.898438 -66.375 37.171875 -66 C 36.753906 -65.820312 36.359375 -65.773438 35.984375 -65.859375 C 35.472656 -65.773438 35.0625 -65.914062 34.75 -66.28125 C 34.519531 -66.613281 34.507812 -66.914062 34.71875 -67.1875 C 34.925781 -67.457031 35.1875 -67.6875 35.5 -67.875 C 37.71875 -69.445312 40.023438 -70.753906 42.421875 -71.796875 C 42.460938 -71.796875 42.503906 -71.816406 42.546875 -71.859375 C 52.316406 -76.460938 62.304688 -80.148438 72.515625 -82.921875 C 87.253906 -86.972656 102.066406 -89.503906 116.953125 -90.515625 C 121.554688 -90.847656 126.140625 -91.015625 130.703125 -91.015625 C 135.660156 -91.054688 140.578125 -90.804688 145.453125 -90.265625 C 150.054688 -89.796875 154.429688 -88.726562 158.578125 -87.0625 C 160.523438 -86.320312 162.207031 -85.222656 163.625 -83.765625 C 164.820312 -82.460938 165.351562 -81.03125 165.21875 -79.46875 C 165.082031 -77.914062 164.320312 -76.375 162.9375 -74.84375 C 161.175781 -73.082031 159.21875 -71.628906 157.0625 -70.484375 C 154.445312 -69.015625 151.78125 -67.679688 149.0625 -66.484375 C 146.34375 -65.296875 143.601562 -64.148438 140.84375 -63.046875 C 140.757812 -63.003906 140.644531 -62.953125 140.5 -62.890625 C 130.863281 -58.929688 121.15625 -55.257812 111.375 -51.875 C 101.59375 -48.5 91.769531 -45.238281 81.90625 -42.09375 C 80.25 -41.550781 78.597656 -41 76.953125 -40.4375 C 74.648438 -39.664062 72.347656 -38.910156 70.046875 -38.171875 C 69.035156 -37.941406 68.226562 -37.390625 67.625 -36.515625 C 67.125 -35.671875 66.90625 -35.019531 66.96875 -34.5625 C 67.03125 -34.101562 67.550781 -33.851562 68.53125 -33.8125 C 71.144531 -33.726562 73.765625 -33.59375 76.390625 -33.40625 C 76.578125 -33.40625 76.742188 -33.40625 76.890625 -33.40625 C 81.847656 -33.09375 86.742188 -32.5625 91.578125 -31.8125 C 96.410156 -31.070312 101.128906 -29.988281 105.734375 -28.5625 C 107.722656 -27.914062 109.640625 -27.1875 111.484375 -26.375 C 112.710938 -25.8125 113.882812 -25.117188 115 -24.296875 C 119.75 -20.617188 120.09375 -15.984375 116.03125 -10.390625 C 114.695312 -8.546875 113.160156 -6.875 111.421875 -5.375 C 107.128906 -1.6875 102.523438 1.492188 97.609375 4.171875 C 93.359375 6.515625 89.046875 8.679688 84.671875 10.671875 C 84.171875 10.835938 83.648438 11.066406 83.109375 11.359375 C 82.828125 11.484375 82.519531 11.617188 82.1875 11.765625 C 82.457031 12.191406 82.707031 12.445312 82.9375 12.53125 C 83.175781 12.613281 83.441406 12.632812 83.734375 12.59375 C 83.734375 12.59375 83.753906 12.59375 83.796875 12.59375 C 84.566406 12.632812 85.316406 12.65625 86.046875 12.65625 L 86.140625 12.65625 C 86.648438 12.65625 87.15625 12.632812 87.65625 12.59375 C 89.957031 12.59375 92.257812 12.59375 94.5625 12.59375 C 108.226562 12.632812 121.832031 12.9375 135.375 13.5 C 150.113281 14 164.785156 14.898438 179.390625 16.203125 C 184.035156 16.597656 188.679688 17.003906 193.328125 17.421875 C 198.941406 17.878906 204.539062 18.363281 210.125 18.875 C 213.394531 19.207031 216.640625 19.601562 219.859375 20.0625 C 220.628906 20.144531 221.4375 20.238281 222.28125 20.34375 C 222.863281 20.425781 223.457031 20.601562 224.0625 20.875 Z M 61.6875 -34.3125 C 61.769531 -34.351562 61.859375 -34.441406 61.953125 -34.578125 C 62.046875 -34.710938 62.113281 -34.820312 62.15625 -34.90625 C 62.15625 -35.007812 62.132812 -35.082031 62.09375 -35.125 C 62.050781 -35.164062 61.976562 -35.238281 61.875 -35.34375 C 61.875 -35.34375 61.851562 -35.363281 61.8125 -35.40625 C 61.3125 -35.300781 60.851562 -35.050781 60.4375 -34.65625 C 60.351562 -34.550781 60.320312 -34.441406 60.34375 -34.328125 C 60.363281 -34.210938 60.445312 -34.15625 60.59375 -34.15625 C 60.945312 -34.15625 61.3125 -34.207031 61.6875 -34.3125 Z M 58.234375 17.234375 C 58.316406 17.171875 58.410156 17.140625 58.515625 17.140625 C 58.679688 17.097656 58.859375 17.019531 59.046875 16.90625 C 59.242188 16.789062 59.382812 16.617188 59.46875 16.390625 C 59.382812 16.203125 59.296875 16.085938 59.203125 16.046875 C 59.140625 16.046875 59.085938 16.046875 59.046875 16.046875 C 47.921875 16.546875 36.757812 17.488281 25.5625 18.875 C 20.03125 19.519531 14.523438 20.550781 9.046875 21.96875 C 8.921875 22.039062 8.785156 22.097656 8.640625 22.140625 C 7.671875 22.328125 6.800781 22.710938 6.03125 23.296875 C 5.84375 23.441406 5.722656 23.601562 5.671875 23.78125 C 5.617188 23.957031 5.707031 24.117188 5.9375 24.265625 C 6.394531 24.453125 6.882812 24.609375 7.40625 24.734375 C 9.1875 25.066406 11 25.234375 12.84375 25.234375 C 14.40625 25.234375 15.972656 25.160156 17.546875 25.015625 C 31.171875 23.867188 44.734375 21.273438 58.234375 17.234375 Z M 58.234375 17.234375 "/></g></g></g><g fill="#e1a730" fill-opacity="1"><g transform="translate(269.567899, 192.383308)"><g><path d="M 4.984375 -7.4375 L 4.890625 -7.4375 C 1.859375 -7.476562 -0.132812 -8.148438 -1.09375 -9.453125 C -2.0625 -10.765625 -2.019531 -12.507812 -0.96875 -14.6875 C -0.09375 -16.34375 1.015625 -17.789062 2.359375 -19.03125 C 2.816406 -19.445312 3.285156 -19.78125 3.765625 -20.03125 C 4.242188 -20.28125 4.789062 -20.40625 5.40625 -20.40625 C 5.757812 -20.46875 6.164062 -20.40625 6.625 -20.21875 C 6.769531 -20.175781 6.914062 -20.125 7.0625 -20.0625 C 7.414062 -20.125 7.757812 -20.238281 8.09375 -20.40625 C 8.175781 -20.46875 8.289062 -20.519531 8.4375 -20.5625 C 9.132812 -20.832031 9.867188 -20.945312 10.640625 -20.90625 C 10.953125 -20.90625 11.273438 -20.90625 11.609375 -20.90625 C 12.847656 -20.71875 13.78125 -20.195312 14.40625 -19.34375 C 15.039062 -18.5 15.257812 -17.472656 15.0625 -16.265625 C 14.957031 -15.523438 14.726562 -14.832031 14.375 -14.1875 C 11.96875 -9.875 8.90625 -7.625 5.1875 -7.4375 Z M 9.953125 -18.6875 C 8.296875 -18.75 6.820312 -18.269531 5.53125 -17.25 C 4.25 -16.238281 3.296875 -15.070312 2.671875 -13.75 C 2.046875 -12.425781 1.875 -11.34375 2.15625 -10.5 C 2.4375 -9.65625 3.304688 -9.421875 4.765625 -9.796875 C 6.421875 -10.296875 7.878906 -11.234375 9.140625 -12.609375 C 10.410156 -13.992188 11.1875 -15.304688 11.46875 -16.546875 C 11.757812 -17.796875 11.253906 -18.507812 9.953125 -18.6875 Z M 9.953125 -18.6875 "/></g></g></g><g fill="#e1a730" fill-opacity="1"><g transform="translate(286.236584, 192.383308)"><g><path d="M 4.984375 -7.4375 L 4.890625 -7.4375 C 1.859375 -7.476562 -0.132812 -8.148438 -1.09375 -9.453125 C -2.0625 -10.765625 -2.019531 -12.507812 -0.96875 -14.6875 C -0.09375 -16.34375 1.015625 -17.789062 2.359375 -19.03125 C 2.816406 -19.445312 3.285156 -19.78125 3.765625 -20.03125 C 4.242188 -20.28125 4.789062 -20.40625 5.40625 -20.40625 C 5.757812 -20.46875 6.164062 -20.40625 6.625 -20.21875 C 6.769531 -20.175781 6.914062 -20.125 7.0625 -20.0625 C 7.414062 -20.125 7.757812 -20.238281 8.09375 -20.40625 C 8.175781 -20.46875 8.289062 -20.519531 8.4375 -20.5625 C 9.132812 -20.832031 9.867188 -20.945312 10.640625 -20.90625 C 10.953125 -20.90625 11.273438 -20.90625 11.609375 -20.90625 C 12.847656 -20.71875 13.78125 -20.195312 14.40625 -19.34375 C 15.039062 -18.5 15.257812 -17.472656 15.0625 -16.265625 C 14.957031 -15.523438 14.726562 -14.832031 14.375 -14.1875 C 11.96875 -9.875 8.90625 -7.625 5.1875 -7.4375 Z M 9.953125 -18.6875 C 8.296875 -18.75 6.820312 -18.269531 5.53125 -17.25 C 4.25 -16.238281 3.296875 -15.070312 2.671875 -13.75 C 2.046875 -12.425781 1.875 -11.34375 2.15625 -10.5 C 2.4375 -9.65625 3.304688 -9.421875 4.765625 -9.796875 C 6.421875 -10.296875 7.878906 -11.234375 9.140625 -12.609375 C 10.410156 -13.992188 11.1875 -15.304688 11.46875 -16.546875 C 11.757812 -17.796875 11.253906 -18.507812 9.953125 -18.6875 Z M 9.953125 -18.6875 "/></g></g></g><g fill="#e1a730" fill-opacity="1"><g transform="translate(302.905269, 192.383308)"><g><path d="M 24.328125 -16.015625 C 24.492188 -15.785156 24.535156 -15.550781 24.453125 -15.3125 C 24.367188 -15.082031 24.210938 -14.875 23.984375 -14.6875 C 22.535156 -13.394531 20.925781 -12.359375 19.15625 -11.578125 C 16.09375 -10.160156 12.890625 -9.285156 9.546875 -8.953125 C 6.910156 -8.679688 4.398438 -9.078125 2.015625 -10.140625 C 1.128906 -10.535156 0.476562 -10.328125 0.0625 -9.515625 C -0.519531 -8.359375 -1.140625 -7.207031 -1.796875 -6.0625 C -2.109375 -5.414062 -2.453125 -4.742188 -2.828125 -4.046875 C -2.867188 -3.960938 -2.910156 -3.867188 -2.953125 -3.765625 C -3.097656 -3.535156 -3.238281 -3.316406 -3.375 -3.109375 C -3.507812 -2.898438 -3.742188 -2.753906 -4.078125 -2.671875 C -4.242188 -2.628906 -4.421875 -2.609375 -4.609375 -2.609375 C -4.796875 -2.609375 -4.96875 -2.648438 -5.125 -2.734375 C -5.25 -2.835938 -5.359375 -2.976562 -5.453125 -3.15625 C -5.546875 -3.332031 -5.59375 -3.515625 -5.59375 -3.703125 C -5.445312 -4.304688 -5.234375 -4.90625 -4.953125 -5.5 C -4.367188 -6.832031 -3.796875 -8.148438 -3.234375 -9.453125 C -1.804688 -12.753906 -0.3125 -16.019531 1.25 -19.25 C 5.582031 -28.144531 9.707031 -37.125 13.625 -46.1875 C 13.9375 -47.0625 14.363281 -47.84375 14.90625 -48.53125 C 15.332031 -49.039062 15.910156 -49.175781 16.640625 -48.9375 C 17.390625 -48.625 17.617188 -48.09375 17.328125 -47.34375 C 16.828125 -45.789062 16.285156 -44.234375 15.703125 -42.671875 C 12.785156 -35.484375 9.601562 -28.4375 6.15625 -21.53125 C 5.414062 -20.050781 5.148438 -19.113281 5.359375 -18.71875 C 5.578125 -18.332031 6.070312 -18.300781 6.84375 -18.625 C 7.613281 -18.957031 8.515625 -19.394531 9.546875 -19.9375 C 10.273438 -20.351562 11.003906 -20.71875 11.734375 -21.03125 C 11.890625 -21.132812 12.03125 -21.207031 12.15625 -21.25 C 13.03125 -21.757812 13.976562 -22.035156 15 -22.078125 C 15.40625 -22.078125 15.703125 -21.894531 15.890625 -21.53125 C 15.992188 -21.300781 16 -21.101562 15.90625 -20.9375 C 15.8125 -20.769531 15.691406 -20.644531 15.546875 -20.5625 C 13.972656 -19.644531 12.378906 -18.765625 10.765625 -17.921875 C 9.992188 -17.566406 9.1875 -17.179688 8.34375 -16.765625 C 7.53125 -16.390625 6.726562 -15.992188 5.9375 -15.578125 C 5.394531 -15.253906 4.890625 -14.882812 4.421875 -14.46875 C 3.359375 -13.363281 3.472656 -12.441406 4.765625 -11.703125 C 5.835938 -11.242188 6.910156 -11.003906 7.984375 -10.984375 C 9.066406 -10.960938 10.140625 -11.085938 11.203125 -11.359375 C 14.515625 -12.097656 17.625 -13.300781 20.53125 -14.96875 C 20.757812 -15.09375 20.988281 -15.210938 21.21875 -15.328125 C 21.769531 -15.679688 22.347656 -15.992188 22.953125 -16.265625 C 23.179688 -16.367188 23.429688 -16.410156 23.703125 -16.390625 C 23.972656 -16.367188 24.179688 -16.242188 24.328125 -16.015625 Z M 24.328125 -16.015625 "/></g></g></g><g fill="#e1a730" fill-opacity="1"><g transform="translate(325.004633, 192.383308)"><g><path d="M 15.1875 -15.921875 C 11.882812 -14.679688 9.5 -13.675781 8.03125 -12.90625 C 6.96875 -12.382812 6.359375 -11.945312 6.203125 -11.59375 C 6.046875 -11.25 6.164062 -10.617188 6.5625 -9.703125 C 6.5625 -9.660156 6.59375 -9.597656 6.65625 -9.515625 C 7.113281 -8.398438 7.382812 -7.25 7.46875 -6.0625 C 7.613281 -3.65625 5.566406 -1.96875 1.328125 -1 C -2.898438 -0.0390625 -5.734375 -0.0078125 -7.171875 -0.90625 C -8.609375 -1.8125 -9.046875 -2.953125 -8.484375 -4.328125 C -7.929688 -5.710938 -6.492188 -7.113281 -4.171875 -8.53125 C -1.847656 -9.957031 -0.296875 -10.984375 0.484375 -11.609375 C 1.265625 -12.242188 1.5 -12.945312 1.1875 -13.71875 C 1.082031 -13.988281 0.96875 -14.257812 0.84375 -14.53125 C 0.570312 -15.1875 0.289062 -15.859375 0 -16.546875 C -0.539062 -17.796875 -0.773438 -19.03125 -0.703125 -20.25 C -0.628906 -21.46875 -0.179688 -22.488281 0.640625 -23.3125 C 1.472656 -24.132812 2.753906 -24.578125 4.484375 -24.640625 C 5.472656 -24.679688 6.351562 -24.550781 7.125 -24.25 C 7.894531 -23.945312 8.515625 -23.390625 8.984375 -22.578125 C 9.359375 -22.003906 9.242188 -21.488281 8.640625 -21.03125 C 8.234375 -20.71875 7.800781 -20.675781 7.34375 -20.90625 C 7.050781 -21.03125 6.769531 -21.207031 6.5 -21.4375 C 6.5 -21.5 6.5 -21.53125 6.5 -21.53125 C 6.375 -21.613281 6.257812 -21.695312 6.15625 -21.78125 C 6.03125 -21.976562 5.894531 -22.128906 5.75 -22.234375 C 5.195312 -22.628906 4.644531 -22.75 4.09375 -22.59375 C 3.539062 -22.4375 3.128906 -22.007812 2.859375 -21.3125 C 2.671875 -20.769531 2.578125 -20.21875 2.578125 -19.65625 C 2.617188 -18.96875 2.773438 -18.296875 3.046875 -17.640625 C 3.234375 -17.242188 3.398438 -16.878906 3.546875 -16.546875 C 3.898438 -15.617188 4.191406 -14.984375 4.421875 -14.640625 C 4.648438 -14.296875 4.925781 -14.148438 5.25 -14.203125 C 5.582031 -14.253906 8.550781 -15.316406 14.15625 -17.390625 C 15.375 -17.785156 15.71875 -17.296875 15.1875 -15.921875 Z M 1.59375 -3.921875 C 3.0625 -4.421875 3.679688 -5.40625 3.453125 -6.875 C 3.453125 -6.976562 3.429688 -7.09375 3.390625 -7.21875 C 3.304688 -8.007812 3.140625 -8.617188 2.890625 -9.046875 C 2.640625 -9.484375 2.070312 -9.472656 1.1875 -9.015625 C -0.988281 -7.773438 -2.992188 -6.328125 -4.828125 -4.671875 C -4.953125 -4.523438 -5.070312 -4.390625 -5.1875 -4.265625 C -5.1875 -4.265625 -5.207031 -4.234375 -5.25 -4.171875 C -5.375 -4.003906 -5.394531 -3.816406 -5.3125 -3.609375 C -5.226562 -3.398438 -5.035156 -3.296875 -4.734375 -3.296875 C -2.578125 -2.960938 -0.46875 -3.171875 1.59375 -3.921875 Z M 1.59375 -3.921875 "/></g></g></g><g fill="#e1a730" fill-opacity="1"><g transform="translate(338.901012, 192.383308)"><g/></g></g><g fill="#e1a730" fill-opacity="1"><g transform="translate(94.828765, 239.960234)"><g><path d="M 7.203125 -0.78125 L 7.203125 0 L 1.125 0 L 1.125 -9.03125 L 7.078125 -9.03125 L 7.078125 -8.234375 L 2.015625 -8.234375 L 2.015625 -4.984375 L 6.4375 -4.984375 L 6.4375 -4.234375 L 2.015625 -4.234375 L 2.015625 -0.78125 Z M 7.203125 -0.78125 "/></g></g></g><g fill="#e1a730" fill-opacity="1"><g transform="translate(110.653393, 239.960234)"><g><path d="M 0.828125 -3.0625 L 0.828125 -3.859375 L 4.546875 -3.859375 L 4.546875 -3.0625 Z M 0.828125 -3.0625 "/></g></g></g><g fill="#e1a730" fill-opacity="1"><g transform="translate(124.099677, 239.960234)"><g><path d="M 7.921875 -2.328125 C 7.921875 -1.984375 7.851562 -1.671875 7.71875 -1.390625 C 7.582031 -1.109375 7.398438 -0.863281 7.171875 -0.65625 C 6.941406 -0.445312 6.675781 -0.285156 6.375 -0.171875 C 6.070312 -0.0546875 5.742188 0 5.390625 0 L 1.125 0 L 1.125 -9.03125 L 5.484375 -9.03125 C 5.796875 -9.03125 6.078125 -8.960938 6.328125 -8.828125 C 6.585938 -8.691406 6.804688 -8.515625 6.984375 -8.296875 C 7.160156 -8.078125 7.296875 -7.828125 7.390625 -7.546875 C 7.492188 -7.273438 7.546875 -7.003906 7.546875 -6.734375 C 7.546875 -6.273438 7.429688 -5.851562 7.203125 -5.46875 C 6.972656 -5.09375 6.65625 -4.8125 6.25 -4.625 C 6.757812 -4.476562 7.164062 -4.195312 7.46875 -3.78125 C 7.769531 -3.363281 7.921875 -2.878906 7.921875 -2.328125 Z M 7.03125 -2.484375 C 7.03125 -2.703125 6.988281 -2.914062 6.90625 -3.125 C 6.832031 -3.332031 6.726562 -3.515625 6.59375 -3.671875 C 6.457031 -3.828125 6.289062 -3.953125 6.09375 -4.046875 C 5.90625 -4.148438 5.703125 -4.203125 5.484375 -4.203125 L 2.015625 -4.203125 L 2.015625 -0.78125 L 5.390625 -0.78125 C 5.617188 -0.78125 5.832031 -0.828125 6.03125 -0.921875 C 6.226562 -1.015625 6.398438 -1.140625 6.546875 -1.296875 C 6.703125 -1.453125 6.820312 -1.632812 6.90625 -1.84375 C 6.988281 -2.050781 7.03125 -2.265625 7.03125 -2.484375 Z M 2.015625 -8.25 L 2.015625 -4.921875 L 5.125 -4.921875 C 5.34375 -4.921875 5.546875 -4.96875 5.734375 -5.0625 C 5.929688 -5.15625 6.097656 -5.273438 6.234375 -5.421875 C 6.367188 -5.578125 6.472656 -5.753906 6.546875 -5.953125 C 6.628906 -6.148438 6.671875 -6.363281 6.671875 -6.59375 C 6.671875 -6.820312 6.632812 -7.035156 6.5625 -7.234375 C 6.488281 -7.441406 6.382812 -7.617188 6.25 -7.765625 C 6.113281 -7.910156 5.957031 -8.023438 5.78125 -8.109375 C 5.601562 -8.203125 5.410156 -8.25 5.203125 -8.25 Z M 2.015625 -8.25 "/></g></g></g><g fill="#e1a730" fill-opacity="1"><g transform="translate(140.64926, 239.960234)"><g><path d="M 4.765625 0.0625 C 4.140625 0.0625 3.566406 -0.0664062 3.046875 -0.328125 C 2.523438 -0.585938 2.078125 -0.929688 1.703125 -1.359375 C 1.328125 -1.785156 1.035156 -2.273438 0.828125 -2.828125 C 0.628906 -3.378906 0.53125 -3.941406 0.53125 -4.515625 C 0.53125 -5.117188 0.640625 -5.695312 0.859375 -6.25 C 1.078125 -6.800781 1.375 -7.285156 1.75 -7.703125 C 2.132812 -8.128906 2.582031 -8.46875 3.09375 -8.71875 C 3.613281 -8.96875 4.175781 -9.09375 4.78125 -9.09375 C 5.40625 -9.09375 5.976562 -8.957031 6.5 -8.6875 C 7.019531 -8.425781 7.460938 -8.078125 7.828125 -7.640625 C 8.203125 -7.210938 8.488281 -6.722656 8.6875 -6.171875 C 8.894531 -5.628906 9 -5.070312 9 -4.5 C 9 -3.894531 8.890625 -3.316406 8.671875 -2.765625 C 8.460938 -2.222656 8.164062 -1.738281 7.78125 -1.3125 C 7.40625 -0.894531 6.957031 -0.5625 6.4375 -0.3125 C 5.925781 -0.0625 5.367188 0.0625 4.765625 0.0625 Z M 1.421875 -4.515625 C 1.421875 -4.023438 1.5 -3.550781 1.65625 -3.09375 C 1.820312 -2.644531 2.050781 -2.242188 2.34375 -1.890625 C 2.644531 -1.535156 3 -1.253906 3.40625 -1.046875 C 3.8125 -0.835938 4.265625 -0.734375 4.765625 -0.734375 C 5.273438 -0.734375 5.738281 -0.84375 6.15625 -1.0625 C 6.570312 -1.289062 6.921875 -1.582031 7.203125 -1.9375 C 7.492188 -2.289062 7.71875 -2.691406 7.875 -3.140625 C 8.03125 -3.585938 8.109375 -4.046875 8.109375 -4.515625 C 8.109375 -5.003906 8.023438 -5.472656 7.859375 -5.921875 C 7.703125 -6.378906 7.472656 -6.78125 7.171875 -7.125 C 6.878906 -7.476562 6.523438 -7.757812 6.109375 -7.96875 C 5.703125 -8.175781 5.253906 -8.28125 4.765625 -8.28125 C 4.253906 -8.28125 3.789062 -8.171875 3.375 -7.953125 C 2.96875 -7.734375 2.617188 -7.445312 2.328125 -7.09375 C 2.035156 -6.738281 1.8125 -6.335938 1.65625 -5.890625 C 1.5 -5.441406 1.421875 -4.984375 1.421875 -4.515625 Z M 1.421875 -4.515625 "/></g></g></g><g fill="#e1a730" fill-opacity="1"><g transform="translate(158.279909, 239.960234)"><g><path d="M 4.765625 0.0625 C 4.140625 0.0625 3.566406 -0.0664062 3.046875 -0.328125 C 2.523438 -0.585938 2.078125 -0.929688 1.703125 -1.359375 C 1.328125 -1.785156 1.035156 -2.273438 0.828125 -2.828125 C 0.628906 -3.378906 0.53125 -3.941406 0.53125 -4.515625 C 0.53125 -5.117188 0.640625 -5.695312 0.859375 -6.25 C 1.078125 -6.800781 1.375 -7.285156 1.75 -7.703125 C 2.132812 -8.128906 2.582031 -8.46875 3.09375 -8.71875 C 3.613281 -8.96875 4.175781 -9.09375 4.78125 -9.09375 C 5.40625 -9.09375 5.976562 -8.957031 6.5 -8.6875 C 7.019531 -8.425781 7.460938 -8.078125 7.828125 -7.640625 C 8.203125 -7.210938 8.488281 -6.722656 8.6875 -6.171875 C 8.894531 -5.628906 9 -5.070312 9 -4.5 C 9 -3.894531 8.890625 -3.316406 8.671875 -2.765625 C 8.460938 -2.222656 8.164062 -1.738281 7.78125 -1.3125 C 7.40625 -0.894531 6.957031 -0.5625 6.4375 -0.3125 C 5.925781 -0.0625 5.367188 0.0625 4.765625 0.0625 Z M 1.421875 -4.515625 C 1.421875 -4.023438 1.5 -3.550781 1.65625 -3.09375 C 1.820312 -2.644531 2.050781 -2.242188 2.34375 -1.890625 C 2.644531 -1.535156 3 -1.253906 3.40625 -1.046875 C 3.8125 -0.835938 4.265625 -0.734375 4.765625 -0.734375 C 5.273438 -0.734375 5.738281 -0.84375 6.15625 -1.0625 C 6.570312 -1.289062 6.921875 -1.582031 7.203125 -1.9375 C 7.492188 -2.289062 7.71875 -2.691406 7.875 -3.140625 C 8.03125 -3.585938 8.109375 -4.046875 8.109375 -4.515625 C 8.109375 -5.003906 8.023438 -5.472656 7.859375 -5.921875 C 7.703125 -6.378906 7.472656 -6.78125 7.171875 -7.125 C 6.878906 -7.476562 6.523438 -7.757812 6.109375 -7.96875 C 5.703125 -8.175781 5.253906 -8.28125 4.765625 -8.28125 C 4.253906 -8.28125 3.789062 -8.171875 3.375 -7.953125 C 2.96875 -7.734375 2.617188 -7.445312 2.328125 -7.09375 C 2.035156 -6.738281 1.8125 -6.335938 1.65625 -5.890625 C 1.5 -5.441406 1.421875 -4.984375 1.421875 -4.515625 Z M 1.421875 -4.515625 "/></g></g></g><g fill="#e1a730" fill-opacity="1"><g transform="translate(175.91056, 239.960234)"><g><path d="M 1.125 0 L 1.125 -9.015625 L 2.015625 -9.015625 L 2.015625 -3.78125 L 7 -9.03125 L 7.96875 -9.03125 L 4.28125 -5.0625 L 8.171875 0 L 7.1875 0 L 3.734375 -4.546875 L 2.015625 -2.765625 L 2.015625 0 Z M 1.125 0 "/></g></g></g><g fill="#e1a730" fill-opacity="1"><g transform="translate(192.167618, 239.960234)"><g><path d="M 6.40625 -7.34375 C 6.15625 -7.625 5.816406 -7.851562 5.390625 -8.03125 C 4.960938 -8.21875 4.476562 -8.3125 3.9375 -8.3125 C 3.144531 -8.3125 2.566406 -8.160156 2.203125 -7.859375 C 1.835938 -7.554688 1.65625 -7.144531 1.65625 -6.625 C 1.65625 -6.351562 1.703125 -6.128906 1.796875 -5.953125 C 1.898438 -5.785156 2.050781 -5.632812 2.25 -5.5 C 2.457031 -5.375 2.71875 -5.265625 3.03125 -5.171875 C 3.351562 -5.078125 3.726562 -4.984375 4.15625 -4.890625 C 4.644531 -4.796875 5.082031 -4.679688 5.46875 -4.546875 C 5.851562 -4.421875 6.179688 -4.265625 6.453125 -4.078125 C 6.722656 -3.890625 6.925781 -3.65625 7.0625 -3.375 C 7.207031 -3.101562 7.28125 -2.765625 7.28125 -2.359375 C 7.28125 -1.953125 7.195312 -1.59375 7.03125 -1.28125 C 6.875 -0.976562 6.648438 -0.722656 6.359375 -0.515625 C 6.078125 -0.316406 5.738281 -0.164062 5.34375 -0.0625 C 4.945312 0.03125 4.507812 0.078125 4.03125 0.078125 C 2.632812 0.078125 1.425781 -0.359375 0.40625 -1.234375 L 0.859375 -1.953125 C 1.015625 -1.785156 1.203125 -1.625 1.421875 -1.46875 C 1.648438 -1.320312 1.898438 -1.191406 2.171875 -1.078125 C 2.453125 -0.960938 2.75 -0.875 3.0625 -0.8125 C 3.375 -0.75 3.707031 -0.71875 4.0625 -0.71875 C 4.78125 -0.71875 5.335938 -0.84375 5.734375 -1.09375 C 6.140625 -1.351562 6.34375 -1.75 6.34375 -2.28125 C 6.34375 -2.5625 6.285156 -2.796875 6.171875 -2.984375 C 6.054688 -3.171875 5.882812 -3.332031 5.65625 -3.46875 C 5.425781 -3.613281 5.140625 -3.738281 4.796875 -3.84375 C 4.460938 -3.945312 4.070312 -4.046875 3.625 -4.140625 C 3.144531 -4.253906 2.726562 -4.367188 2.375 -4.484375 C 2.019531 -4.609375 1.71875 -4.757812 1.46875 -4.9375 C 1.226562 -5.113281 1.046875 -5.328125 0.921875 -5.578125 C 0.796875 -5.828125 0.734375 -6.132812 0.734375 -6.5 C 0.734375 -6.914062 0.8125 -7.285156 0.96875 -7.609375 C 1.125 -7.941406 1.347656 -8.210938 1.640625 -8.421875 C 1.929688 -8.640625 2.269531 -8.804688 2.65625 -8.921875 C 3.050781 -9.035156 3.484375 -9.09375 3.953125 -9.09375 C 4.554688 -9.09375 5.09375 -9 5.5625 -8.8125 C 6.03125 -8.632812 6.457031 -8.378906 6.84375 -8.046875 Z M 6.40625 -7.34375 "/></g></g></g><g fill="#e1a730" fill-opacity="1"><g transform="translate(207.966819, 239.960234)"><g/></g></g><g fill="#e1a730" fill-opacity="1"><g transform="translate(219.289127, 239.960234)"><g><path d="M 6.40625 -7.34375 C 6.15625 -7.625 5.816406 -7.851562 5.390625 -8.03125 C 4.960938 -8.21875 4.476562 -8.3125 3.9375 -8.3125 C 3.144531 -8.3125 2.566406 -8.160156 2.203125 -7.859375 C 1.835938 -7.554688 1.65625 -7.144531 1.65625 -6.625 C 1.65625 -6.351562 1.703125 -6.128906 1.796875 -5.953125 C 1.898438 -5.785156 2.050781 -5.632812 2.25 -5.5 C 2.457031 -5.375 2.71875 -5.265625 3.03125 -5.171875 C 3.351562 -5.078125 3.726562 -4.984375 4.15625 -4.890625 C 4.644531 -4.796875 5.082031 -4.679688 5.46875 -4.546875 C 5.851562 -4.421875 6.179688 -4.265625 6.453125 -4.078125 C 6.722656 -3.890625 6.925781 -3.65625 7.0625 -3.375 C 7.207031 -3.101562 7.28125 -2.765625 7.28125 -2.359375 C 7.28125 -1.953125 7.195312 -1.59375 7.03125 -1.28125 C 6.875 -0.976562 6.648438 -0.722656 6.359375 -0.515625 C 6.078125 -0.316406 5.738281 -0.164062 5.34375 -0.0625 C 4.945312 0.03125 4.507812 0.078125 4.03125 0.078125 C 2.632812 0.078125 1.425781 -0.359375 0.40625 -1.234375 L 0.859375 -1.953125 C 1.015625 -1.785156 1.203125 -1.625 1.421875 -1.46875 C 1.648438 -1.320312 1.898438 -1.191406 2.171875 -1.078125 C 2.453125 -0.960938 2.75 -0.875 3.0625 -0.8125 C 3.375 -0.75 3.707031 -0.71875 4.0625 -0.71875 C 4.78125 -0.71875 5.335938 -0.84375 5.734375 -1.09375 C 6.140625 -1.351562 6.34375 -1.75 6.34375 -2.28125 C 6.34375 -2.5625 6.285156 -2.796875 6.171875 -2.984375 C 6.054688 -3.171875 5.882812 -3.332031 5.65625 -3.46875 C 5.425781 -3.613281 5.140625 -3.738281 4.796875 -3.84375 C 4.460938 -3.945312 4.070312 -4.046875 3.625 -4.140625 C 3.144531 -4.253906 2.726562 -4.367188 2.375 -4.484375 C 2.019531 -4.609375 1.71875 -4.757812 1.46875 -4.9375 C 1.226562 -5.113281 1.046875 -5.328125 0.921875 -5.578125 C 0.796875 -5.828125 0.734375 -6.132812 0.734375 -6.5 C 0.734375 -6.914062 0.8125 -7.285156 0.96875 -7.609375 C 1.125 -7.941406 1.347656 -8.210938 1.640625 -8.421875 C 1.929688 -8.640625 2.269531 -8.804688 2.65625 -8.921875 C 3.050781 -9.035156 3.484375 -9.09375 3.953125 -9.09375 C 4.554688 -9.09375 5.09375 -9 5.5625 -8.8125 C 6.03125 -8.632812 6.457031 -8.378906 6.84375 -8.046875 Z M 6.40625 -7.34375 "/></g></g></g><g fill="#e1a730" fill-opacity="1"><g transform="translate(235.088329, 239.960234)"><g><path d="M 8.25 -9.03125 L 8.25 0 L 7.375 0 L 7.375 -4.21875 L 2.015625 -4.21875 L 2.015625 0 L 1.125 0 L 1.125 -9.03125 L 2.015625 -9.03125 L 2.015625 -5.015625 L 7.375 -5.015625 L 7.375 -9.03125 Z M 8.25 -9.03125 "/></g></g></g><g fill="#e1a730" fill-opacity="1"><g transform="translate(252.553641, 239.960234)"><g><path d="M 3.9375 -9.03125 L 4.6875 -9.03125 L 8.4375 0 L 7.484375 0 L 6.328125 -2.828125 L 2.265625 -2.828125 L 1.109375 0 L 0.15625 0 Z M 6.125 -3.515625 L 4.296875 -7.984375 L 2.453125 -3.515625 Z M 6.125 -3.515625 "/></g></g></g><g fill="#e1a730" fill-opacity="1"><g transform="translate(269.230416, 239.960234)"><g><path d="M 1.125 0 L 1.125 -9.03125 L 4.953125 -9.03125 C 5.335938 -9.03125 5.691406 -8.945312 6.015625 -8.78125 C 6.347656 -8.613281 6.628906 -8.394531 6.859375 -8.125 C 7.097656 -7.863281 7.285156 -7.5625 7.421875 -7.21875 C 7.554688 -6.882812 7.625 -6.539062 7.625 -6.1875 C 7.625 -5.863281 7.570312 -5.550781 7.46875 -5.25 C 7.375 -4.945312 7.238281 -4.671875 7.0625 -4.421875 C 6.882812 -4.179688 6.671875 -3.976562 6.421875 -3.8125 C 6.179688 -3.65625 5.910156 -3.546875 5.609375 -3.484375 L 7.828125 0 L 6.8125 0 L 4.6875 -3.328125 L 2.015625 -3.328125 L 2.015625 0 Z M 2.015625 -4.125 L 4.96875 -4.125 C 5.238281 -4.125 5.476562 -4.179688 5.6875 -4.296875 C 5.90625 -4.410156 6.085938 -4.5625 6.234375 -4.75 C 6.390625 -4.945312 6.507812 -5.164062 6.59375 -5.40625 C 6.6875 -5.65625 6.734375 -5.914062 6.734375 -6.1875 C 6.734375 -6.457031 6.679688 -6.71875 6.578125 -6.96875 C 6.484375 -7.21875 6.351562 -7.4375 6.1875 -7.625 C 6.019531 -7.8125 5.820312 -7.957031 5.59375 -8.0625 C 5.375 -8.175781 5.140625 -8.234375 4.890625 -8.234375 L 2.015625 -8.234375 Z M 2.015625 -4.125 "/></g></g></g><g fill="#e1a730" fill-opacity="1"><g transform="translate(285.614662, 239.960234)"><g><path d="M 1.125 0 L 1.125 -9.03125 L 2.015625 -9.03125 L 2.015625 0 Z M 1.125 0 "/></g></g></g><g fill="#e1a730" fill-opacity="1"><g transform="translate(296.847945, 239.960234)"><g><path d="M 2.015625 -7.375 L 2.015625 0 L 1.125 0 L 1.125 -9.03125 L 1.8125 -9.03125 L 7.796875 -1.515625 L 7.796875 -9.015625 L 8.6875 -9.015625 L 8.6875 0 L 7.90625 0 Z M 2.015625 -7.375 "/></g></g></g><g fill="#e1a730" fill-opacity="1"><g transform="translate(314.745671, 239.960234)"><g><path d="M 7.65625 -1.328125 C 6.8125 -0.398438 5.84375 0.0625 4.75 0.0625 C 4.144531 0.0625 3.582031 -0.0664062 3.0625 -0.328125 C 2.550781 -0.585938 2.109375 -0.929688 1.734375 -1.359375 C 1.359375 -1.796875 1.0625 -2.285156 0.84375 -2.828125 C 0.632812 -3.378906 0.53125 -3.945312 0.53125 -4.53125 C 0.53125 -5.132812 0.632812 -5.707031 0.84375 -6.25 C 1.050781 -6.800781 1.34375 -7.285156 1.71875 -7.703125 C 2.09375 -8.128906 2.53125 -8.46875 3.03125 -8.71875 C 3.539062 -8.96875 4.097656 -9.09375 4.703125 -9.09375 C 5.148438 -9.09375 5.554688 -9.039062 5.921875 -8.9375 C 6.285156 -8.84375 6.609375 -8.707031 6.890625 -8.53125 C 7.171875 -8.363281 7.414062 -8.160156 7.625 -7.921875 C 7.832031 -7.679688 8.007812 -7.414062 8.15625 -7.125 L 7.46875 -6.671875 C 7.164062 -7.222656 6.773438 -7.628906 6.296875 -7.890625 C 5.828125 -8.160156 5.289062 -8.296875 4.6875 -8.296875 C 4.1875 -8.296875 3.734375 -8.1875 3.328125 -7.96875 C 2.929688 -7.757812 2.585938 -7.476562 2.296875 -7.125 C 2.015625 -6.769531 1.796875 -6.363281 1.640625 -5.90625 C 1.492188 -5.457031 1.421875 -4.992188 1.421875 -4.515625 C 1.421875 -4.003906 1.507812 -3.519531 1.6875 -3.0625 C 1.863281 -2.601562 2.101562 -2.203125 2.40625 -1.859375 C 2.707031 -1.515625 3.0625 -1.238281 3.46875 -1.03125 C 3.882812 -0.832031 4.335938 -0.734375 4.828125 -0.734375 C 5.335938 -0.734375 5.828125 -0.851562 6.296875 -1.09375 C 6.773438 -1.34375 7.226562 -1.726562 7.65625 -2.25 L 7.65625 -3.75 L 5.640625 -3.75 L 5.640625 -4.4375 L 8.40625 -4.4375 L 8.40625 0 L 7.65625 0 Z M 7.65625 -1.328125 "/></g></g></g></svg>